<?xml version="1.0" encoding="UTF-8" standalone="no"?>
<!-- Created with Inkscape (http://www.inkscape.org/) -->

<svg
   xmlns:dc="http://purl.org/dc/elements/1.1/"
   xmlns:cc="http://creativecommons.org/ns#"
   xmlns:rdf="http://www.w3.org/1999/02/22-rdf-syntax-ns#"
   xmlns:svg="http://www.w3.org/2000/svg"
   xmlns="http://www.w3.org/2000/svg"
   xmlns:sodipodi="http://sodipodi.sourceforge.net/DTD/sodipodi-0.dtd"
   xmlns:inkscape="http://www.inkscape.org/namespaces/inkscape"
   width="368.86343mm"
   height="368.86343mm"
   viewBox="0 0 368.86343 368.86343"
   version="1.1"
   id="svg8"
   inkscape:version="0.92.4 5da689c313, 2019-01-14"
   sodipodi:docname="tomator-time.svg">
  <defs
     id="defs2">
    <inkscape:path-effect
       effect="bspline"
       id="path-effect4882"
       is_visible="true"
       weight="33.333333"
       steps="2"
       helper_size="0"
       apply_no_weight="true"
       apply_with_weight="true"
       only_selected="false" />
    <inkscape:path-effect
       effect="bspline"
       id="path-effect4868"
       is_visible="true"
       weight="33.333333"
       steps="2"
       helper_size="0"
       apply_no_weight="true"
       apply_with_weight="true"
       only_selected="false" />
    <inkscape:path-effect
       effect="bspline"
       id="path-effect4743"
       is_visible="true"
       weight="33.333333"
       steps="2"
       helper_size="0"
       apply_no_weight="true"
       apply_with_weight="true"
       only_selected="false" />
  </defs>
  <sodipodi:namedview
     id="base"
     pagecolor="#ffffff"
     bordercolor="#666666"
     borderopacity="1.0"
     inkscape:pageopacity="0.0"
     inkscape:pageshadow="2"
     inkscape:zoom="0.49497474"
     inkscape:cx="789.88496"
     inkscape:cy="601.11967"
     inkscape:document-units="mm"
     inkscape:current-layer="layer1"
     showgrid="false"
     inkscape:window-width="1920"
     inkscape:window-height="997"
     inkscape:window-x="0"
     inkscape:window-y="0"
     inkscape:window-maximized="1"
     fit-margin-top="0"
     fit-margin-left="0"
     fit-margin-right="0"
     fit-margin-bottom="0" />
  <metadata
     id="metadata5">
    <rdf:RDF>
      <cc:Work
         rdf:about="">
        <dc:format>image/svg+xml</dc:format>
        <dc:type
           rdf:resource="http://purl.org/dc/dcmitype/StillImage" />
        <dc:title />
      </cc:Work>
    </rdf:RDF>
  </metadata>
  <g
     inkscape:label="Camada 1"
     inkscape:groupmode="layer"
     id="layer1"
     transform="translate(89.375477,45.639537)">
    <circle
       transform="rotate(-150)"
       r="184.43172"
       cy="-72.669434"
       cx="-151.71721"
       id="circle4833"
       style="opacity:1;fill:#1871ca;fill-opacity:1;stroke:none;stroke-width:3.39999986;stroke-linecap:round;stroke-linejoin:bevel;stroke-miterlimit:4;stroke-dasharray:none;stroke-opacity:0;paint-order:normal" />
    <g
       id="g132"
       transform="rotate(5.3407951,98.697698,127.16663)">
      <path
         d="m -43.498177,206.04433 q -1.538714,0.86939 -3.121841,0.58865 -1.567874,-0.25375 -2.238977,-1.44153 l -5.628112,-9.96115 -13.821435,7.8092 -3.12673,-5.53397 36.848164,-20.81944 8.754841,15.49512 q 0.671103,1.18778 0.07938,2.66171 -0.57647,1.50093 -2.088192,2.35506 z m -2.208898,-6.05254 13.821435,-7.8092 -4.163889,-7.36964 -13.821435,7.8092 z"
         style="font-style:normal;font-variant:normal;font-weight:normal;font-stretch:normal;font-size:63.5px;line-height:1.25;font-family:'SF Electrotome Condensed';-inkscape-font-specification:'SF Electrotome Condensed, Normal';font-variant-ligatures:normal;font-variant-caps:normal;font-variant-numeric:normal;font-feature-settings:normal;text-align:start;letter-spacing:7.90839577px;word-spacing:9.68375015px;writing-mode:lr-tb;text-anchor:start;fill:#ffffff;fill-opacity:1;stroke:none;stroke-width:0.26458332"
         id="path4923"
         inkscape:connector-curvature="0" />
      <path
         d="m -40.653599,240.24247 q -1.476025,0.97202 -3.07458,0.7996 -1.5815,-0.14652 -2.348884,-1.3118 l -7.912582,-12.01536 q -0.75033,-1.13938 -0.277273,-2.67604 0.490112,-1.51077 1.966135,-2.48279 l 28.277512,-18.62185 q 1.450127,-0.95497 3.031631,-0.80844 1.598556,0.17242 2.348886,1.31181 l 7.912583,12.01535 q 0.7673833,1.16528 0.277272,2.67605 -0.473058,1.53666 -1.923188,2.49162 z m -2.615427,-5.88831 26.516644,-17.46225 -4.655463,-7.06937 -26.516642,17.46225 z"
         style="font-style:normal;font-variant:normal;font-weight:normal;font-stretch:normal;font-size:63.5px;line-height:1.25;font-family:'SF Electrotome Condensed';-inkscape-font-specification:'SF Electrotome Condensed, Normal';font-variant-ligatures:normal;font-variant-caps:normal;font-variant-numeric:normal;font-feature-settings:normal;text-align:start;letter-spacing:7.90839577px;word-spacing:9.68375015px;writing-mode:lr-tb;text-anchor:start;fill:#ffffff;fill-opacity:1;stroke:none;stroke-width:0.26458332"
         id="path4925"
         inkscape:connector-curvature="0" />
      <path
         d="m -15.695693,275.06963 -4.40533,-4.58196 26.7094799,-25.67985 -4.4053313,-4.58196 -26.7094766,25.67985 -4.383841,-4.55961 26.7094798,-25.67985 -4.4053313,-4.58196 -26.7094805,25.67984 -4.405327,-4.58195 30.509154,-29.33305 19.662813,20.45119 q 0.945534,0.98345 0.739152,2.55826 -0.184892,1.59715 -1.436548,2.80056 z"
         style="font-style:normal;font-variant:normal;font-weight:normal;font-stretch:normal;font-size:63.5px;line-height:1.25;font-family:'SF Electrotome Condensed';-inkscape-font-specification:'SF Electrotome Condensed, Normal';font-variant-ligatures:normal;font-variant-caps:normal;font-variant-numeric:normal;font-feature-settings:normal;text-align:start;letter-spacing:7.90839577px;word-spacing:9.68375015px;writing-mode:lr-tb;text-anchor:start;fill:#ffffff;fill-opacity:1;stroke:none;stroke-width:0.26458332"
         id="path4927"
         inkscape:connector-curvature="0" />
      <path
         d="m 13.958609,289.38676 q -0.924571,1.5062 -2.445401,2.02791 -1.494412,0.53791 -2.6835137,-0.192 l -12.2610037,-7.52632 q -1.1626795,-0.7137 -1.3858717,-2.30596 -0.1967637,-1.57604 0.7278036,-3.08224 L 13.623426,249.45251 q 0.908349,-1.47977 2.402758,-2.0177 1.520838,-0.52168 2.683512,0.192 l 12.261001,7.52631 q 1.189106,0.72993 1.385872,2.30597 0.223192,1.59226 -0.685157,3.07204 z m -4.8655415,-4.22364 16.6098085,-27.05876 -7.213909,-4.4282 -16.6098089,27.05876 z"
         style="font-style:normal;font-variant:normal;font-weight:normal;font-stretch:normal;font-size:63.5px;line-height:1.25;font-family:'SF Electrotome Condensed';-inkscape-font-specification:'SF Electrotome Condensed, Normal';font-variant-ligatures:normal;font-variant-caps:normal;font-variant-numeric:normal;font-feature-settings:normal;text-align:start;letter-spacing:7.90839577px;word-spacing:9.68375015px;writing-mode:lr-tb;text-anchor:start;fill:#ffffff;fill-opacity:1;stroke:none;stroke-width:0.26458332"
         id="path4929"
         inkscape:connector-curvature="0" />
      <path
         d="m 43.667235,301.36806 q -0.614427,1.65709 -2.004971,2.46424 -1.361474,0.81792 -2.64063,0.34364 l -16.687196,-6.18739 14.713894,-39.68295 16.687194,6.18737 q 1.279158,0.4743 1.778277,1.9821 0.528198,1.5186 -0.07546,3.14661 z m -5.593213,-3.19822 11.038115,-29.76949 -7.936594,-2.94278 -11.038112,29.76949 z"
         style="font-style:normal;font-variant:normal;font-weight:normal;font-stretch:normal;font-size:63.5px;line-height:1.25;font-family:'SF Electrotome Condensed';-inkscape-font-specification:'SF Electrotome Condensed, Normal';font-variant-ligatures:normal;font-variant-caps:normal;font-variant-numeric:normal;font-feature-settings:normal;text-align:start;letter-spacing:7.90839577px;word-spacing:9.68375015px;writing-mode:lr-tb;text-anchor:start;fill:#ffffff;fill-opacity:1;stroke:none;stroke-width:0.26458332"
         id="path4931"
         inkscape:connector-curvature="0" />
      <path
         d="m 75.06923,308.18763 q -0.327153,1.7368 -1.562244,2.76619 -1.204619,1.03514 -2.575773,0.77685 l -14.138079,-2.66313 q -1.340679,-0.25254 -2.116609,-1.66074 -0.745458,-1.40247 -0.418306,-3.13926 l 6.267561,-33.27325 q 0.321414,-1.70632 1.526036,-2.74145 1.235092,-1.02939 2.575774,-0.77685 l 14.138081,2.66314 q 1.371152,0.25828 2.11661,1.66074 0.77593,1.40821 0.454516,3.11453 z m -6.051207,-2.21258 5.877275,-31.20128 -8.318309,-1.56689 -5.877275,31.20129 z"
         style="font-style:normal;font-variant:normal;font-weight:normal;font-stretch:normal;font-size:63.5px;line-height:1.25;font-family:'SF Electrotome Condensed';-inkscape-font-specification:'SF Electrotome Condensed, Normal';font-variant-ligatures:normal;font-variant-caps:normal;font-variant-numeric:normal;font-feature-settings:normal;text-align:start;letter-spacing:7.90839577px;word-spacing:9.68375015px;writing-mode:lr-tb;text-anchor:start;fill:#ffffff;fill-opacity:1;stroke:none;stroke-width:0.26458332"
         id="path4933"
         inkscape:connector-curvature="0" />
      <path
         d="m 106.87387,313.9203 -6.35534,-0.10484 -5.962599,-23.91409 6.355339,0.10483 0.21836,-13.2377 -8.463451,-0.1396 -0.611098,37.04696 -6.355336,-0.10483 0.69803,-42.31725 17.794945,0.29353 q 1.36407,0.0225 2.33567,1.27894 1.0026,1.25693 0.97395,2.99303 l -0.25313,15.34581 q -0.0286,1.7361 -1.07266,2.99028 -1.0125,1.22371 -2.37657,1.20121 l -1.58109,-0.0261 z"
         style="font-style:normal;font-variant:normal;font-weight:normal;font-stretch:normal;font-size:63.5px;line-height:1.25;font-family:'SF Electrotome Condensed';-inkscape-font-specification:'SF Electrotome Condensed, Normal';font-variant-ligatures:normal;font-variant-caps:normal;font-variant-numeric:normal;font-feature-settings:normal;text-align:start;letter-spacing:7.90839577px;word-spacing:9.68375015px;writing-mode:lr-tb;text-anchor:start;fill:#ffffff;fill-opacity:1;stroke:none;stroke-width:0.26458332"
         id="path4935"
         inkscape:connector-curvature="0" />
      <path
         d="m 138.40673,305.19528 q 0.31008,1.73992 -0.47964,3.14044 -0.7592,1.39507 -2.13282,1.63987 l -14.16356,2.52416 q -1.34309,0.23936 -2.56802,-0.80212 -1.19439,-1.04692 -1.50447,-2.78683 l -5.94047,-33.3332 q -0.30464,-1.7094 0.45456,-3.10447 0.78972,-1.40052 2.13282,-1.63988 l 14.16355,-2.52416 q 1.37362,-0.2448 2.56802,0.80213 1.22492,1.04147 1.52956,2.75086 z m -6.44257,0.0773 -5.57055,-31.2575 -8.3333,1.48511 5.57055,31.2575 z"
         style="font-style:normal;font-variant:normal;font-weight:normal;font-stretch:normal;font-size:63.5px;line-height:1.25;font-family:'SF Electrotome Condensed';-inkscape-font-specification:'SF Electrotome Condensed, Normal';font-variant-ligatures:normal;font-variant-caps:normal;font-variant-numeric:normal;font-feature-settings:normal;text-align:start;letter-spacing:7.90839577px;word-spacing:9.68375015px;writing-mode:lr-tb;text-anchor:start;fill:#ffffff;fill-opacity:1;stroke:none;stroke-width:0.26458332"
         id="path4937"
         inkscape:connector-curvature="0" />
      <path
         d="m 189.10001,234.57838 1.75104,5.40024 -4.0516,3.37163 23.70063,28.48037 -4.88575,4.0658 -23.70064,-28.48037 -5.69606,4.74013 -1.75104,-5.40024 z"
         style="font-style:normal;font-variant:normal;font-weight:normal;font-stretch:normal;font-size:63.5px;line-height:1.25;font-family:'SF Electrotome Condensed';-inkscape-font-specification:'SF Electrotome Condensed, Normal';font-variant-ligatures:normal;font-variant-caps:normal;font-variant-numeric:normal;font-feature-settings:normal;text-align:start;letter-spacing:7.90839577px;word-spacing:9.68375015px;writing-mode:lr-tb;text-anchor:start;fill:#ffffff;fill-opacity:1;stroke:none;stroke-width:0.26458332"
         id="path4939"
         inkscape:connector-curvature="0" />
      <path
         d="m 227.65717,254.84804 -4.28251,4.69696 -31.27484,-28.51527 4.28251,-4.69696 z"
         style="font-style:normal;font-variant:normal;font-weight:normal;font-stretch:normal;font-size:63.5px;line-height:1.25;font-family:'SF Electrotome Condensed';-inkscape-font-specification:'SF Electrotome Condensed, Normal';font-variant-ligatures:normal;font-variant-caps:normal;font-variant-numeric:normal;font-feature-settings:normal;text-align:start;letter-spacing:7.90839577px;word-spacing:9.68375015px;writing-mode:lr-tb;text-anchor:start;fill:#ffffff;fill-opacity:1;stroke:none;stroke-width:0.26458332"
         id="path4941"
         inkscape:connector-curvature="0" />
      <path
         d="m 252.66432,219.42866 -3.4169,5.35966 -31.24293,-19.9181 -3.41691,5.35967 31.24293,19.9181 -3.40025,5.33352 -31.24292,-19.9181 -3.41691,5.35966 31.24292,19.9181 -3.41692,5.35966 -35.68752,-22.75163 15.2511,-23.92241 q 0.73339,-1.15037 2.31254,-1.32028 1.59583,-0.19606 3.05994,0.73734 z"
         style="font-style:normal;font-variant:normal;font-weight:normal;font-stretch:normal;font-size:63.5px;line-height:1.25;font-family:'SF Electrotome Condensed';-inkscape-font-specification:'SF Electrotome Condensed, Normal';font-variant-ligatures:normal;font-variant-caps:normal;font-variant-numeric:normal;font-feature-settings:normal;text-align:start;letter-spacing:7.90839577px;word-spacing:9.68375015px;writing-mode:lr-tb;text-anchor:start;fill:#ffffff;fill-opacity:1;stroke:none;stroke-width:0.26458332"
         id="path4943"
         inkscape:connector-curvature="0" />
      <path
         d="m 259.39999,189.04469 4.1607,3.9045 -6.21449,15.78065 -39.37948,-15.50784 6.98704,-17.74241 4.13186,3.89315 -3.88548,9.8665 12.31871,4.85117 3.10156,-7.87589 4.1607,3.9045 -2.32901,5.91413 12.28985,4.83981 z"
         style="font-style:normal;font-variant:normal;font-weight:normal;font-stretch:normal;font-size:63.5px;line-height:1.25;font-family:'SF Electrotome Condensed';-inkscape-font-specification:'SF Electrotome Condensed, Normal';font-variant-ligatures:normal;font-variant-caps:normal;font-variant-numeric:normal;font-feature-settings:normal;text-align:start;letter-spacing:7.90839577px;word-spacing:9.68375015px;writing-mode:lr-tb;text-anchor:start;fill:#ffffff;fill-opacity:1;stroke:none;stroke-width:0.26458332"
         id="path4945"
         inkscape:connector-curvature="0" />
      <g
         transform="rotate(-77.393141,258.03232,205.54643)"
         id="text101"
         style="font-style:normal;font-variant:normal;font-weight:normal;font-stretch:normal;font-size:10.58333302px;line-height:1.25;font-family:'Carbon Block';-inkscape-font-specification:'Carbon Block';font-variant-ligatures:normal;font-variant-caps:normal;font-variant-numeric:normal;font-feature-settings:normal;text-align:start;letter-spacing:0px;word-spacing:0px;writing-mode:lr-tb;text-anchor:start;fill:#ffffff;fill-opacity:1;stroke:none;stroke-width:0.26458332"
         aria-label="R">
        <path
           inkscape:connector-curvature="0"
           id="path103"
           style="font-style:normal;font-variant:normal;font-weight:normal;font-stretch:normal;font-size:63.5px;font-family:'SF Electrotome Condensed';-inkscape-font-specification:'SF Electrotome Condensed, Normal';font-variant-ligatures:normal;font-variant-caps:normal;font-variant-numeric:normal;font-feature-settings:normal;text-align:start;writing-mode:lr-tb;text-anchor:start;fill:#ffffff;stroke-width:0.26458332"
           d="m 305.84439,209.45305 h -6.3562 l -6.3562,-23.8125 h 6.3562 v -13.2395 h -8.4646 v 37.052 h -6.3562 v -42.323 h 17.79736 q 1.36426,0 2.35645,1.24024 1.02319,1.24023 1.02319,2.97656 v 15.3479 q 0,1.73633 -1.02319,3.00757 -0.99219,1.24023 -2.35645,1.24023 h -1.5813 z" />
      </g>
    </g>
    <g
       id="g4820"
       transform="translate(0.75637173,-5.0964409)">
      <g
         style="stroke-width:1.24371541"
         transform="matrix(0.75609094,0,0,0.85503518,108.59465,75.953508)"
         id="g4561">
        <path
           inkscape:connector-curvature="0"
           id="path4543"
           d="m -25.908292,206.23085 c -18.984666,-0.74735 -40.116057,-4.38048 -56.620829,-9.73484 -13.77282,-4.46808 -24.722719,-9.68935 -36.255079,-17.2876 -7.68768,-5.06514 -13.55977,-9.8626 -20.20245,-16.50528 -10.71889,-10.71889 -18.97432,-22.36175 -24.68855,-34.81892 -7.80786,-17.02136 -12.78484,-38.792198 -13.90719,-60.834398 -1.28908,-25.316589 5.44871,-48.768402 20.61485,-71.752819 10.75992,-16.306743 24.43984,-26.753371 43.70751,-33.377091 9.04079,-3.107983 18.089489,-4.910635 32.494799,-6.473504 3.68652,-0.399962 8.607773,-0.969553 10.936106,-1.265759 2.328334,-0.296207 6.693958,-0.685578 9.701389,-0.865276 15.034835,-0.898345 17.876195,-1.053976 23.018749,-1.260828 3.055938,-0.122922 5.55625,-0.351465 5.55625,-0.507873 0,-0.156411 -1.011763,-1.211259 -2.248365,-2.344109 -2.938791,-2.69222 -7.567853,-5.423055 -12.294524,-7.252944 -2.090858,-0.809455 -3.801555,-1.619001 -3.801555,-1.798992 0,-0.618247 12.227789,-0.01469 15.590707,0.769553 6.661608,1.553501 11.988722,4.402328 16.720322,8.941672 l 2.854082,2.738116 3.532603,0.231507 c 2.821326,0.184891 3.595758,0.132718 3.846269,-0.259122 0.489342,-0.765419 4.281876,-9.991855 5.661346,-13.772882 1.692522,-4.639062 2.065101,-4.995342 5.047615,-4.826815 2.933686,0.165768 6.418926,1.778398 8.268815,3.826004 1.801315,1.993843 1.678555,2.711741 -0.838003,4.900577 -2.280362,1.983396 -4.416665,4.617852 -6.469697,7.978336 -1.952054,3.195196 -1.946455,3.202943 2.520738,3.485613 2.511002,0.158888 4.169526,0.108 4.844556,-0.148646 2.081072,-0.791221 7.860104,-2.15627 11.974812,-2.82853 4.658381,-0.76109 6.173611,-0.853503 6.173611,-0.376534 0,0.17339 -1.11125,1.074537 -2.469444,2.00255 -1.358195,0.92801 -2.469445,1.799509 -2.469445,1.936658 0,0.446737 1.530061,0.674638 4.586112,0.683102 3.874501,0.01072 11.911714,0.568924 18.168055,1.26179 28.485259,3.154631 51.091213,11.602896 67.204167,25.115449 7.88625,6.613525 16.01086,16.638802 21.65191,26.717145 14.07411,25.14493 18.0814,62.837632 10.07211,94.73854 -4.27925,17.04421 -11.10109,31.18253 -20.67293,42.84479 -18.88154,23.00512 -41.703448,39.08483 -68.575483,48.31643 -20.762126,7.13261 -40.785594,10.80297 -64.536718,11.82977 -8.618018,0.37257 -8.601441,0.3726 -18.697221,-0.0248 z"
           style="fill:#ef6235;stroke-width:1.24371541"
           sodipodi:nodetypes="csssssssssssssssssccccsssssscscscssssssscc" />
        <path
           inkscape:connector-curvature="0"
           id="path4541"
           d="m -18.918883,206.36989 c 0.25466,-0.10191 0.558934,-0.0894 0.676159,0.0278 0.117224,0.11723 -0.09114,0.20061 -0.463021,0.18529 -0.410969,-0.0169 -0.494559,-0.10052 -0.213138,-0.21314 z m -11.399132,-0.82104 c -22.741282,-1.62055 -44.430456,-6.18093 -61.555886,-12.94277 -5.91737,-2.33643 -16.047749,-7.32143 -21.535539,-10.5973 -21.27108,-12.69754 -39.10515,-31.8902 -49.00426,-52.73738 -8.52994,-17.96378 -13.84509,-41.314698 -14.70913,-64.621348 -0.89761,-24.212275 6.28535,-47.767832 21.41726,-70.235003 6.17425,-9.167251 12.87312,-15.872163 21.84728,-21.866986 10.53246,-7.035786 24.13137,-12.177399 38.629169,-14.605296 5.09466,-0.853186 15.36937,-2.166267 16.69052,-2.133008 0.8568,0.02155 0.88025,0.05493 0.24281,0.345493 -0.38806,0.17689 -1.62932,0.657903 -2.75837,1.068913 -1.12905,0.411011 -2.00202,0.79809 -1.93993,0.860175 0.15642,0.156422 8.08382,-2.59606 8.55201,-2.969355 0.967933,-0.771744 18.086425,-2.398744 18.547678,-1.762834 0.225118,0.310359 6.373255,1.469735 6.598659,1.244332 0.09283,-0.09283 -0.560141,-0.278092 -1.451049,-0.411692 -4.182096,-0.627144 -0.489592,-1.06637 12.211558,-1.452577 6.158695,-0.187268 7.781596,-0.139647 8.290277,0.243258 0.347874,0.26186 -0.802509,-0.943359 -2.556411,-2.678267 -3.750066,-3.709455 -7.667501,-6.169251 -13.294257,-8.347596 -2.090858,-0.809455 -3.801555,-1.619001 -3.801555,-1.798992 0,-0.618247 12.227789,-0.01469 15.590707,0.769553 6.730315,1.569525 11.888304,4.347704 16.91308,9.109678 1.70265,1.613595 3.005081,2.933813 2.894287,2.933813 -0.110793,0 0.08896,0.436563 0.443897,0.970139 0.35494,0.533576 1.325697,2.156919 2.15724,3.607431 0.831546,1.45051 1.511899,2.468034 1.511899,2.261168 0,-0.206868 -0.79375,-1.696801 -1.763888,-3.31096 -0.970139,-1.614159 -1.763889,-3.00935 -1.763889,-3.100423 0,-0.09107 1.468437,-0.05131 3.263194,0.08836 1.794757,0.139668 3.145508,0.135064 3.001673,-0.01023 -0.143838,-0.145295 -0.07115,-0.493557 0.161523,-0.773916 0.504,-0.607283 4.044491,-9.0961 5.795606,-13.895765 1.692522,-4.639062 2.065101,-4.995342 5.047615,-4.826815 1.757341,0.0993 2.946121,0.423481 4.676249,1.27522 2.507883,1.234627 4.86525,3.511415 4.86525,4.698945 0,0.461386 -1.104857,1.820764 -2.93812,3.614956 -2.990758,2.927025 -6.446308,7.734857 -6.820842,9.490089 -0.113855,0.533576 -0.385603,0.988395 -0.603885,1.010708 -0.753494,0.07702 2.429052,0.624381 3.748264,0.644656 0.727604,0.01118 1.314517,0.139393 1.304251,0.284913 -0.01027,0.145521 -1.619405,1.023465 -3.575865,1.950988 -1.956459,0.92752 -3.495872,1.746222 -3.420917,1.819335 0.16135,0.157385 7.704585,-3.485691 8.323474,-4.019902 0.234346,-0.20228 0.739951,-0.367782 1.123562,-0.367782 0.383614,0 1.141613,-0.16886 1.684443,-0.375242 2.04477,-0.77742 7.852374,-2.146452 11.935357,-2.81353 4.658381,-0.76109 6.173611,-0.853503 6.173611,-0.376534 0,0.17339 -1.11125,1.074537 -2.469444,2.00255 -1.358195,0.92801 -2.469445,1.788622 -2.469445,1.912465 0,0.123843 -0.519123,0.472722 -1.153604,0.775286 -1.235488,0.58916 -11.667454,8.797476 -12.126619,9.541738 -0.151257,0.245174 0.353977,-0.06549 1.122743,-0.690361 5.662859,-4.602892 8.593942,-6.925109 9.766131,-7.737436 l 1.360208,-0.942626 8.302625,0.417696 c 24.74704,1.244992 43.621882,5.154189 60.055702,12.438232 14.388258,6.377375 24.919598,14.435574 34.452548,26.36183 1.71517,2.145778 3.27404,3.805276 3.46416,3.687776 0.19291,-0.119221 0.23377,-0.03256 0.0925,0.196057 -0.29244,0.473184 1.11358,2.618154 1.54245,2.353098 0.15728,-0.09721 0.26421,0.09936 0.23761,0.436824 -0.0267,0.339347 0.16043,0.570244 0.41882,0.516628 0.25696,-0.05331 0.36425,0.06964 0.23843,0.27323 -0.12583,0.203592 0.39529,1.358463 1.15805,2.566381 0.76275,1.207918 1.81205,3.035529 2.33178,4.061354 0.57928,1.143381 1.0977,1.77074 1.33967,1.62119 0.22981,-0.142028 0.29671,-0.08535 0.16012,0.135643 -0.12903,0.208781 0.33584,1.622372 1.03305,3.141314 6.26155,13.64138 9.85429,28.047575 11.1142,44.565877 0.52019,6.81992 0.2388,20.66339 -0.55214,27.16389 -2.48125,20.392664 -8.69726,38.449454 -18.07833,52.515444 -1.59977,2.39871 -2.80647,4.52667 -2.68154,4.72881 0.12493,0.20214 0.0617,0.26525 -0.1406,0.14025 -0.49641,-0.3068 -3.02986,2.82407 -2.7074,3.34583 0.14413,0.2332 0.0998,0.31459 -0.10308,0.1892 -0.51205,-0.31646 -2.00185,1.37564 -1.67574,1.90329 0.1574,0.25468 0.12178,0.34312 -0.0864,0.21448 -0.37392,-0.2311 -6.12248,5.8129 -6.23523,6.55567 -0.10567,0.69614 -0.60115,1.3409 -0.89221,1.16101 -0.1476,-0.0912 -1.12339,0.69994 -2.16844,1.75814 -1.04504,1.05818 -1.76184,1.92398 -1.59287,1.92398 0.16896,0 0.0233,0.31376 -0.32379,0.69724 -0.34704,0.38348 -0.78402,0.60265 -0.97107,0.48705 -0.44934,-0.27771 -4.18165,3.42078 -3.90454,3.86915 0.12014,0.1944 0.0343,0.23582 -0.19497,0.0941 -0.51676,-0.31937 -4.70772,3.27422 -4.39971,3.77259 0.1322,0.21391 0.0481,0.2529 -0.20634,0.0956 -0.52546,-0.32475 -1.86912,0.81134 -1.55696,1.31643 0.13162,0.21295 0.047,0.25165 -0.20693,0.0947 -0.52546,-0.32475 -1.869117,0.81134 -1.556955,1.31643 0.130408,0.211 0.04752,0.25194 -0.200163,0.0989 -0.527889,-0.32626 -1.523463,0.4538 -1.215382,0.95229 0.131381,0.21258 0.05639,0.26186 -0.178023,0.11698 -0.532398,-0.32904 -5.070012,2.91059 -4.765918,3.40262 0.134175,0.2171 0.06548,0.27253 -0.162863,0.13141 -0.454625,-0.28097 -3.31506,1.49512 -3.063487,1.90217 0.09174,0.14845 -0.109298,0.24814 -0.446758,0.22154 -0.339348,-0.0267 -0.570244,0.16043 -0.516629,0.41883 0.05331,0.25695 -0.06285,0.36844 -0.258138,0.24774 -0.195291,-0.12069 -2.143908,0.84429 -4.33027,2.14441 -21.373454,12.70975 -49.269398,20.84502 -81.586304,23.79297 -5.476388,0.49955 -27.687005,0.72158 -33.161111,0.33149 z M 112.42559,160.48518 c 0.43881,-0.55953 0.42634,-0.572 -0.13319,-0.13319 -0.33955,0.26629 -0.61736,0.5441 -0.61736,0.61736 0,0.29035 0.2897,0.10347 0.75055,-0.48417 z M -70.477111,59.328202 c 7.92854,-1.28592 13.467366,-4.71678 15.839271,-9.811178 1.265163,-2.717327 1.140654,-4.256303 -0.56406,-6.972056 -2.180198,-3.473231 -2.885348,-5.204263 -3.073171,-7.544153 -0.339721,-4.232218 1.420534,-8.706622 7.188362,-18.272142 4.483996,-7.436382 5.484072,-9.687027 5.693283,-12.812596 0.122248,-1.82633 0.02081,-2.775881 -0.379081,-3.549219 -1.998958,-3.865563 -7.95256,-6.423508 -18.059396,-7.75916 -6.465467,-0.854435 -17.787678,-0.517204 -24.341668,0.725011 -20.735379,3.930096 -35.097599,14.887793 -40.199519,30.670316 -3.63003,11.229322 -0.69923,19.57937 8.65402,24.655959 9.04682,4.910264 21.445249,9.235778 30.487169,10.636238 4.36341,0.67583 14.67933,0.69397 18.75479,0.033 z m 34.043405,-34.077106 c -0.349748,-7.716675 2.143717,-17.495301 5.860898,-22.984675 1.358455,-2.006106 1.56845,-2.383317 1.326825,-2.383317 -0.112384,0 -0.985876,1.197205 -1.941096,2.660453 -3.409537,5.222889 -5.18735,11.51807 -5.546922,19.64148 -0.117818,2.661691 -0.352623,4.753896 -0.521794,4.649343 -0.968375,-0.598491 -3.16267,-6.382275 -3.841408,-10.1253 -0.638016,-3.51844 -0.472888,-10.209392 0.351833,-14.256374 0.750764,-3.684048 2.739598,-9.81813 3.95703,-12.204492 0.384292,-0.753276 0.632471,-1.435837 0.551505,-1.516799 -0.08096,-0.08096 -0.807071,1.323481 -1.613571,3.120993 -5.041194,11.235686 -5.56799,23.198204 -1.424156,32.339811 2.192422,4.836647 3.026166,5.147409 2.840856,1.058877 z M 27.120345,9.337072 C 26.980811,5.142139 24.737842,-0.671215 21.390761,-5.512939 19.184101,-8.704988 10.03911,-17.64981 10.095325,-16.561134 c 0.01115,0.216066 1.056636,1.1866 2.323281,2.156739 7.564872,5.794015 13.515245,15.455381 14.122785,22.930555 l 0.200702,2.469444 -3.595331,-3.786995 C 15.307676,-1.048384 6.712052,-6.639429 -1.684168,-8.942729 c -1.519855,-0.416937 -2.830234,-0.691204 -2.911955,-0.609483 -0.08172,0.08172 1.144323,0.494622 2.724542,0.917564 4.282933,1.146316 7.900807,2.842553 12.358464,5.794255 4.97494,3.294225 8.361691,6.179735 12.653543,10.780811 1.836328,1.968634 3.49753,3.523985 3.691558,3.45633 0.194028,-0.06765 0.32379,-0.994506 0.288361,-2.059676 z M -27.319403,-2.057173 c 0.658205,-0.679098 1.117363,-1.234723 1.020349,-1.234723 -0.09701,0 -0.714922,0.555625 -1.373127,1.234723 -0.658206,0.679097 -1.117364,1.234722 -1.02035,1.234722 0.09701,0 0.714922,-0.555625 1.373128,-1.234722 z M 103.94012,-9.29055 c 2.85658,-0.793535 3.78608,-3.314142 2.36154,-6.404028 -3.14729,-6.826666 -14.741291,-14.459168 -26.749222,-17.609413 -6.841849,-1.794941 -13.740835,-0.184856 -15.618946,3.645143 -1.213408,2.474482 0.08041,4.545707 3.561845,5.702056 0.936819,0.311161 4.758482,1.183351 8.492589,1.938197 8.605827,1.739656 9.583659,2.208731 14.019194,6.72508 5.259554,5.355385 9.573468,7.214012 13.933,6.002965 z m -137.485342,-6.78954 c 0.726803,-1.309687 1.244427,-2.38125 1.150278,-2.38125 -0.212701,0 -3.744398,6.236088 -3.742584,6.608463 0.0014,0.314512 0.741771,-0.892584 2.592306,-4.227213 z m 102.581658,-1.697619 c -4.837391,-4.583116 -13.235569,-9.580499 -20.934185,-12.457003 -1.883297,-0.703672 -3.629547,-1.271478 -3.880556,-1.261791 -0.251008,0.0097 1.051747,0.564801 2.895011,1.23359 6.289414,2.281975 12.585368,5.624604 17.797169,9.448817 3.510146,2.575606 5.525541,4.473085 5.240655,4.934035 -0.121359,0.196363 -0.03753,0.239483 0.191001,0.09824 0.224007,-0.138444 0.407286,-0.0836 0.407286,0.121882 0,0.205478 0.198437,0.366931 0.440972,0.358785 0.242534,-0.0081 -0.728275,-1.122599 -2.157353,-2.476555 z m -26.68223,-14.275452 c -0.776111,-0.255786 -1.728611,-0.461681 -2.116667,-0.457543 -0.388055,0.0041 0.0088,0.214475 0.881945,0.46742 2.071596,0.600142 3.061624,0.592222 1.234722,-0.0099 z m -3.880555,-0.872067 c -0.582084,-0.148114 -1.534584,-0.267183 -2.116667,-0.264598 -1.020304,0.0045 -1.013965,0.01404 0.176389,0.264598 0.679097,0.142942 1.631597,0.262011 2.116666,0.264597 0.782564,0.0042 0.762685,-0.02565 -0.176388,-0.264597 z m -14.199306,-0.586416 c -0.242534,-0.09786 -0.639409,-0.09786 -0.881944,0 -0.242535,0.09786 -0.0441,0.177938 0.440972,0.177938 0.48507,0 0.683507,-0.08007 0.440972,-0.177938 z m 8.907639,-0.132718 c -1.164167,-0.144441 -3.307291,-0.250278 -4.7625,-0.235186 l -2.645833,0.02745 2.998611,0.221318 c 1.649236,0.121733 3.792361,0.227567 4.7625,0.23519 l 1.763889,0.01386 -2.116667,-0.262625 z m -96.933041,-0.199559 c -0.117224,-0.117225 -0.421498,-0.129756 -0.676158,-0.02783 -0.281422,0.112614 -0.197831,0.196208 0.213138,0.213135 0.371884,0.01531 0.580245,-0.06806 0.46302,-0.185286 z m -2.638485,-0.373278 c -0.242534,-0.09786 -0.639409,-0.09786 -0.881944,0 -0.242535,0.09786 -0.0441,0.177938 0.440972,0.177938 0.48507,0 0.683507,-0.08007 0.440972,-0.177938 z m -3.168286,-0.350541 c -0.238841,-0.09663 -0.715091,-0.102514 -1.058333,-0.01309 -0.343243,0.08944 -0.147825,0.168508 0.434258,0.175697 0.582084,0.0072 0.862916,-0.06599 0.624075,-0.162627 z m -4.240047,-0.355015 c -0.242534,-0.09786 -0.639406,-0.09786 -0.881946,0 -0.24253,0.09786 -0.0441,0.177938 0.44097,0.177938 0.485074,0 0.683511,-0.08007 0.440976,-0.177938 z m 44.540825,-0.469011 c -1.06663,-1.178612 -6.533592,-4.76572 -9.632441,-6.320257 -2.857543,-1.433484 -8.696569,-3.57766 -9.648613,-3.543113 -0.262425,0.0095 1.122669,0.54936 3.077979,1.199639 5.364889,1.784202 11.797731,5.287705 15.494888,8.438945 1.275461,1.087127 1.574493,1.182045 0.708187,0.224786 z m -50.185271,0.100905 c -0.43656,-0.08409 -1.15094,-0.08409 -1.5875,0 -0.43656,0.08408 -0.0794,0.152884 0.79375,0.152884 0.87313,0 1.23031,-0.0688 0.79375,-0.152884 z m -11.64166,-0.365752 c -1.4155,-0.06738 -2.55764,-0.281679 -2.55764,-0.479891 0,-0.196977 -0.16134,-0.258427 -0.35853,-0.136557 -0.87531,0.540967 0.25848,0.872935 2.7606,0.808292 l 2.7132,-0.07009 z m 65.056548,-1.237365 c -0.09786,-0.242535 -0.177937,-0.0441 -0.177937,0.440972 0,0.48507 0.08007,0.683507 0.177937,0.440972 0.09786,-0.242534 0.09786,-0.639409 0,-0.881944 z m -57.552898,-4.784778 c -0.16922,-0.16922 -8.06807,3.813496 -9.03913,4.557663 -0.46517,0.356486 1.40357,-0.497907 4.15277,-1.898653 2.74921,-1.400747 4.94806,-2.597298 4.88636,-2.65901 z M 150.50845,72.349542 c 0.0169,-0.41097 0.10052,-0.49456 0.21313,-0.21314 0.10191,0.25466 0.0894,0.55893 -0.0278,0.67616 -0.11723,0.11722 -0.20061,-0.0911 -0.18529,-0.46302 z m 0,-7.05556 c 0.0169,-0.41097 0.10052,-0.49456 0.21313,-0.21314 0.10191,0.25466 0.0894,0.55894 -0.0278,0.67616 -0.11723,0.11723 -0.20061,-0.0911 -0.18529,-0.46302 z"
           style="fill:#8ab046;stroke-width:1.24371541"
           sodipodi:nodetypes="ccccccsssssssccsccccsscsssscsccssscccsssscsccccscscsscscccscsssccccccccccscscsccccccccsccccccccccccccccccscccccsccscssccsssssccssssscsccccsscsccscsssssscccscscscsssssssscscscssccscccccccccccccsscccccscccccccccssccccccccsccscsscccsccsccccsscscccccccccccccc" />
        <path
           inkscape:connector-curvature="0"
           id="path4539"
           d="m -30.318015,205.54885 c -22.741282,-1.62055 -44.430456,-6.18093 -61.555886,-12.94277 -5.91737,-2.33643 -16.047749,-7.32143 -21.535539,-10.5973 -21.27108,-12.69754 -39.10515,-31.8902 -49.00426,-52.73738 -8.52994,-17.96378 -13.84509,-41.314698 -14.70913,-64.621348 -0.89761,-24.212275 6.28535,-47.767832 21.41726,-70.235003 6.17425,-9.167251 12.87312,-15.872163 21.84728,-21.866986 10.53246,-7.035786 24.13137,-12.177399 38.629169,-14.605296 5.09466,-0.853186 15.36937,-2.166267 16.69052,-2.133008 1.11545,0.02808 1.0176,0.08132 -2.93219,1.595254 -5.3194,2.038901 -13.07082,6.247543 -12.67781,6.883435 0.10771,0.174283 1.41678,0.290192 2.90905,0.257574 l 2.7132,-0.05931 -2.11666,-0.205278 c -1.47837,-0.143373 -1.91549,-0.287486 -1.44953,-0.477891 1.03825,-0.424261 6.74587,-0.949236 10.39369,-0.955996 1.81484,-0.0035 5.56534,-0.180632 8.334441,-0.393932 8.293188,-0.638817 16.379352,0.402717 25.069652,3.229084 7.530729,2.449237 15.625134,6.964859 15.152736,8.45325 -0.121288,0.382147 0.239529,1.540439 0.867174,2.783798 1.266063,2.508059 1.326903,3.223154 0.349486,4.107702 -0.945455,0.855627 -3.396791,5.233292 -5.473492,9.774717 -5.66499,12.388472 -6.181149,24.655066 -1.438472,34.185375 1.912571,3.843274 2.56607,3.92363 2.40362,0.295558 -0.357082,-7.974951 1.98254,-17.0128 6.00723,-23.205651 1.616897,-2.487945 1.625875,-3.255741 0.0152,-1.301736 -1.465446,1.777837 -3.454792,5.977632 -4.738628,10.003916 -0.594691,1.865034 -1.201614,3.549721 -1.348715,3.743749 -0.147101,0.194027 -0.38825,1.543402 -0.535887,2.998611 l -0.268432,2.645833 -0.519938,-1.234722 c -0.408418,-0.969892 -0.474352,-2.180541 -0.307404,-5.644445 0.529414,-10.984466 4.60073,-20.970108 11.223385,-27.527408 1.329591,-1.316467 3.007872,-2.741944 3.729517,-3.167725 1.101528,-0.649916 0.887434,-0.329625 -1.334121,1.995911 -4.667616,4.886085 -8.175123,10.96343 -10.227782,17.72136 -0.883042,2.907228 -0.757689,3.725125 0.183324,1.196143 1.92405,-5.17089 5.244448,-10.070035 8.374553,-12.356394 3.651409,-2.667145 4.408893,-2.999786 7.276638,-3.195458 4.627407,-0.315736 6.341551,-0.146381 8.471256,0.836944 1.093234,0.504769 2.702073,1.050234 3.575198,1.212148 2.5738,0.477284 8.461008,2.337301 10.983926,3.470286 5.682136,2.551712 12.788463,7.91537 18.60991,14.046238 2.447551,2.577645 4.025169,3.980741 4.291086,3.816396 0.291883,-0.180388 0.349336,-0.865938 0.187814,-2.24097 -0.565256,-4.811981 -2.627856,-9.986147 -5.823677,-14.609064 -2.470273,-3.573381 -9.807215,-10.61601 -13.036514,-12.513574 -1.457301,-0.856322 -1.507042,-0.936198 -0.881945,-1.416209 2.941062,-2.258437 12.97958,-4.914317 21.049844,-5.569136 1.689788,-0.137107 3.072338,-0.41099 3.072338,-0.60863 0,-0.56515 -9.798413,-0.01471 -14.770498,0.829768 -4.658847,0.79127 -5.84804,0.720535 -2.850745,-0.169566 9.765574,-2.900066 22.339893,-2.971884 34.378187,-0.196359 2.869431,0.661571 7.605822,2.294713 9.525,3.28429 0.582083,0.300136 1.572253,0.732571 2.200377,0.960967 0.633063,0.230191 1.041139,0.578538 0.915631,0.781607 -0.132588,0.214535 -0.05479,0.260276 0.187749,0.110381 0.476514,-0.294503 4.252358,0.927957 5.976824,1.935046 0.641682,0.374741 1.371138,0.681348 1.621017,0.681348 0.630245,0 1.682246,1.227278 1.358198,1.584494 -0.145944,0.160881 -0.06691,0.178319 0.17562,0.03875 0.242535,-0.139573 0.440972,-0.08565 0.440972,0.119828 0,0.205478 0.198438,0.366931 0.440973,0.358785 0.869562,-0.02921 -4.856463,-5.012055 -8.69605,-7.56739 -9.149941,-6.089498 -18.997044,-9.702009 -29.400584,-10.785898 -4.357635,-0.454 -11.535043,-0.113467 -8.734615,0.414412 0.776111,0.146297 3.633611,0.428321 6.35,0.626723 5.881038,0.429546 10.653444,1.368542 15.695485,3.088175 7.072111,2.412005 7.674197,3.267124 0.85925,1.220353 -10.885988,-3.269452 -20.806205,-4.308806 -29.078332,-3.046574 -3.632669,0.554305 -6.08632,1.323805 -12.347222,3.872265 -2.23132,0.908244 -5.5958,2.109371 -7.476624,2.669173 -2.064533,0.614482 -4.136803,1.51112 -5.229331,2.262646 -0.995309,0.684653 -2.345824,1.392865 -3.001144,1.573808 -1.862638,0.514301 -4.798123,-0.407998 -5.27789,-1.658256 -0.507238,-1.321844 1.195955,-8.114351 3.509253,-13.995252 0.686379,-1.744916 1.247958,-3.346767 1.247958,-3.559665 0,-0.212901 -0.79375,-1.707769 -1.763888,-3.321928 -0.970139,-1.614159 -1.763889,-3.00935 -1.763889,-3.100423 0,-0.09107 1.401208,-0.05597 3.113796,0.07801 2.378643,0.186077 3.203141,0.134352 3.492207,-0.219082 0.500073,-0.611427 5.483998,-12.295479 6.252411,-14.657823 0.330599,-1.016364 0.723329,-1.923483 0.872734,-2.015821 0.149405,-0.09234 1.069565,0.601206 2.044798,1.541207 1.817674,1.752004 4.631973,3.098203 7.242803,3.464544 1.45802,0.204583 1.619674,0.468515 0.732554,1.196058 -1.952625,1.601383 -7.523526,9.741236 -7.523526,10.992906 0,0.504475 2.02395,0.956539 4.282571,0.956539 0.555004,0 1.000696,0.119063 0.99043,0.264583 -0.01027,0.145521 -1.607213,1.017521 -3.548771,1.93778 l -3.530103,1.673197 -0.998474,2.207359 c -1.406394,3.109154 -3.187389,8.268864 -2.939693,8.516556 0.11431,0.114314 0.69942,-0.08351 1.300243,-0.43961 0.600827,-0.356101 2.044908,-1.013559 3.209075,-1.461026 1.164167,-0.447463 3.307292,-1.720014 4.7625,-2.827888 3.598739,-2.739785 8.170104,-5.674448 10.936111,-7.020623 2.889094,-1.406077 2.101507,-0.743246 -4.357173,3.666973 -2.834177,1.935279 -5.232713,3.726282 -5.330077,3.980004 -0.138444,0.360786 0.212884,0.409592 1.612209,0.223964 0.984081,-0.130542 2.082507,-0.254667 2.440954,-0.275837 0.358443,-0.02117 2.194825,-1.308488 4.080842,-2.86071 1.88602,-1.552222 4.543075,-3.65566 5.904572,-4.674305 2.867794,-2.145638 2.189402,-2.065236 12.582006,-1.491185 35.089263,1.938203 61.127134,10.145109 79.639109,25.101535 9.63508,7.784493 19.01993,19.711415 24.71878,31.414348 6.49883,13.345731 10.42882,28.680067 11.73321,45.781543 0.52019,6.81992 0.2388,20.66339 -0.55214,27.16389 -2.91277,23.939194 -10.88143,44.362794 -23.25506,59.602544 -19.4597,23.96717 -43.228521,40.42194 -71.950374,49.81008 -15.995237,5.22827 -32.273328,8.46999 -51.20158,10.19663 -5.476388,0.49955 -27.687005,0.72158 -33.161111,0.33149 z M -70.477111,59.328202 c 7.92854,-1.28592 13.467366,-4.71678 15.839271,-9.811178 1.265163,-2.717327 1.140654,-4.256303 -0.56406,-6.972056 -2.180198,-3.473231 -2.885348,-5.204263 -3.073171,-7.544153 -0.339721,-4.232218 1.420534,-8.706622 7.188362,-18.272142 4.483996,-7.436382 5.484072,-9.687027 5.693283,-12.812596 0.122248,-1.82633 0.02081,-2.775881 -0.379081,-3.549219 -1.998958,-3.865563 -7.95256,-6.423508 -18.059396,-7.75916 -6.465467,-0.854435 -17.787678,-0.517204 -24.341668,0.725011 -20.735379,3.930096 -35.097599,14.887793 -40.199519,30.670316 -3.63003,11.229322 -0.69923,19.57937 8.65402,24.655959 9.04682,4.910264 21.445249,9.235778 30.487169,10.636238 4.36341,0.67583 14.67933,0.69397 18.75479,0.033 z m 43.157708,-61.385375 c 0.658205,-0.679098 1.117363,-1.234723 1.020349,-1.234723 -0.09701,0 -0.714922,0.555625 -1.373127,1.234723 -0.658206,0.679097 -1.117364,1.234722 -1.02035,1.234722 0.09701,0 0.714922,-0.555625 1.373128,-1.234722 z M 103.94012,-9.29055 c 2.85658,-0.793535 3.78608,-3.314142 2.36154,-6.404028 -3.14729,-6.826666 -14.741291,-14.459168 -26.749222,-17.609413 -6.841849,-1.794941 -13.740835,-0.184856 -15.618946,3.645143 -1.213408,2.474482 0.08041,4.545707 3.561845,5.702056 0.936819,0.311161 4.758482,1.183351 8.492589,1.938197 8.605827,1.739656 9.583659,2.208731 14.019194,6.72508 5.259554,5.355385 9.573468,7.214012 13.933,6.002965 z M -63.751057,-33.843921 c -0.117224,-0.117225 -0.421498,-0.129756 -0.676158,-0.02783 -0.281422,0.112614 -0.197831,0.196208 0.213138,0.213135 0.371884,0.01531 0.580245,-0.06806 0.46302,-0.185286 z m -2.638485,-0.373278 c -0.242534,-0.09786 -0.639409,-0.09786 -0.881944,0 -0.242535,0.09786 -0.0441,0.177938 0.440972,0.177938 0.48507,0 0.683507,-0.08007 0.440972,-0.177938 z m -3.168286,-0.350541 c -0.238841,-0.09663 -0.715091,-0.102514 -1.058333,-0.01309 -0.343243,0.08944 -0.147825,0.168508 0.434258,0.175697 0.582084,0.0072 0.862916,-0.06599 0.624075,-0.162627 z m -4.240047,-0.355015 c -0.242534,-0.09786 -0.639406,-0.09786 -0.881946,0 -0.24253,0.09786 -0.0441,0.177938 0.44097,0.177938 0.485074,0 0.683511,-0.08007 0.440976,-0.177938 z m -5.644446,-0.368106 c -0.43656,-0.08409 -1.15094,-0.08409 -1.5875,0 -0.43656,0.08408 -0.0794,0.152884 0.79375,0.152884 0.87313,0 1.23031,-0.0688 0.79375,-0.152884 z m 39.422918,40.320277 c 0,-0.959386 1.060552,-6.029699 1.628295,-7.784581 1.924315,-5.948031 5.069237,-11.096075 9.141876,-14.964685 1.483198,-1.408896 2.784888,-2.473466 2.892644,-2.365714 0.107752,0.107756 -0.580736,1.086796 -1.529976,2.175644 -2.795715,3.206884 -5.576196,7.317983 -7.181229,10.617853 -1.500943,3.085863 -3.621426,9.071511 -4.080397,11.518028 -0.234269,1.248756 -0.871213,1.836162 -0.871213,0.803455 z M 23.074372,5.21564 C 22.753937,5.096147 20.452062,3.07623 17.959094,0.726931 15.46613,-1.622368 11.878616,-4.844185 9.986846,-6.432662 8.095075,-8.021139 6.547262,-9.402024 6.547262,-9.501296 c 0,-0.280599 1.801227,0.849581 4.960045,3.112188 1.588693,1.137955 2.956165,2.001375 3.038824,1.918716 0.08266,-0.08266 -1.518905,-1.709014 -3.55903,-3.61412 -2.040128,-1.905102 -3.647909,-3.525238 -3.572848,-3.600298 0.523148,-0.523149 8.196823,6.131768 11.478764,9.954838 4.260952,4.963505 5.822671,7.55766 4.181355,6.945612 z m -0.65211,-4.070942 c -2.162891,-3.349453 -5.86856,-8.172803 -9.167939,-11.933121 -0.808659,-0.921632 -1.356484,-1.675695 -1.217383,-1.675695 0.1391,0 1.261237,0.885264 2.493641,1.967255 3.713462,3.260242 8.500568,9.708532 9.984204,13.448845 0.919042,2.316959 0.131402,1.636684 -2.092523,-1.807284 z m 15.875,-29.256168 c -2.425347,-0.406819 -4.059728,-0.793312 -3.631957,-0.858876 0.784804,-0.120287 9.296816,1.239605 9.589195,1.531987 0.278582,0.278581 -1.44351,0.084 -5.957238,-0.673111 z m -66.917996,-6.514274 c -4.989378,-4.997256 -15.08132,-10.056918 -22.390734,-11.225738 -3.787271,-0.60561 0.01679,-1.037445 12.476233,-1.416304 5.94911,-0.180894 7.778192,-0.132912 8.197447,0.215036 0.478318,0.39697 0.492796,0.313418 0.127339,-0.734935 -0.508046,-1.457374 -3.575607,-4.478799 -6.630187,-6.53046 -2.887419,-1.939381 -2.444548,-1.971406 1.024471,-0.07408 3.169997,1.733783 6.262084,3.790305 8.041943,5.348641 2.794381,2.446584 5.667473,7.977748 6.310958,12.149606 0.323483,2.097222 -0.326732,1.911255 -1.137642,-0.325371 -0.712745,-1.965871 -1.54463,-2.66272 -1.541797,-1.291526 0.0021,1.043975 -1.764958,5.938425 -2.144035,5.938425 -0.156168,0 -1.206465,-0.923982 -2.333996,-2.053294 z m 2.593301,-2.268234 c -0.09786,-0.242535 -0.177937,-0.0441 -0.177937,0.440972 0,0.48507 0.08007,0.683507 0.177937,0.440972 0.09786,-0.242534 0.09786,-0.639409 0,-0.881944 z m -7.994748,1.349379 c -8.189733,-4.165935 -17.593327,-6.465701 -29.104166,-7.117786 -5.13552,-0.290921 -4.8759,-0.753808 0.454875,-0.811011 9.039437,-0.097 19.347698,2.267712 26.885402,6.167497 2.536656,1.31239 5.532582,3.30919 4.938889,3.291794 -0.09701,-0.0028 -1.525764,-0.691564 -3.175,-1.530494 z m -9.877778,-0.245756 c -6.345861,-2.218108 -14.835296,-3.801322 -20.743763,-3.868557 -1.493777,-0.017 -3.509708,-0.145969 -4.479847,-0.286601 l -1.763889,-0.255697 2.452395,-0.291281 c 6.308492,-0.749286 17.403067,0.979681 24.174548,3.767338 2.549112,1.049408 4.420355,2.065066 3.702247,2.009479 -0.188693,-0.0146 -1.692455,-0.498214 -3.341691,-1.074681 z m 46.743055,-3.686598 c 1.953955,-1.773598 9.069818,-5.148125 13.934722,-6.608205 7.391428,-2.218358 9.369283,-2.099554 3.618713,0.217364 -4.156227,1.674551 -6.479716,2.75899 -9.527741,4.446859 -1.406701,0.778972 -2.557639,1.343924 -2.557639,1.255448 0,-0.08848 0.873125,-0.74059 1.940278,-1.449141 1.067153,-0.708547 1.940278,-1.338128 1.940278,-1.399063 0,-0.275707 -3.1912,1.063692 -6.805856,2.856522 l -3.953866,1.961078 z m -23.902207,-4.977402 c -2.352379,-2.9435 -6.192979,-6.598743 -9.051417,-8.614568 -1.174401,-0.82821 -2.063955,-1.57715 -1.976791,-1.664314 0.406559,-0.406559 5.543956,3.148944 8.095869,5.603011 2.627306,2.526566 5.494408,6.441894 5.045774,6.890529 -0.105015,0.105015 -1.056062,-0.891579 -2.113435,-2.214658 z m 5.622042,0.328433 c -2.864509,-3.900787 -8.950885,-8.66678 -14.27397,-11.177365 -2.431955,-1.147008 -2.962547,-1.850523 -0.827553,-1.097255 6.995286,2.468082 14.5432,8.521368 16.261817,13.041679 0.496301,1.305373 0.23447,1.132275 -1.160294,-0.767059 z M 4.860695,-61.119574 c -2.075723,-1.640765 -2.352869,-2.632097 -0.918552,-3.285615 0.819623,-0.373445 1.217701,-0.264262 3.564686,0.977702 1.453112,0.768951 2.726499,1.60884 2.829746,1.86642 0.292182,0.728923 -0.732631,1.507641 -2.252344,1.711478 -1.222305,0.163945 -1.595466,0.01693 -3.223536,-1.269985 z"
           style="fill:#6d9c3f;stroke-width:1.24371541"
           sodipodi:nodetypes="csssssssssccccccsscscsssscscscsscssssssccsscsssscscsscccccsccscssssssssscsscssscsscssssscscscccsssccsscssscsssccccscssccssssscccscscscssssssccccccssccccccccscccscssscsssscsssssccscsssscsccccsssccsscsscsssscssssscsscccsscsssssscsscssssscscssscssscss" />
        <path
           inkscape:connector-curvature="0"
           id="path4537"
           d="m -30.318015,205.54882 c -22.741282,-1.62055 -44.430456,-6.18093 -61.555886,-12.94277 -5.91737,-2.33643 -16.047749,-7.32143 -21.535539,-10.5973 -21.27108,-12.69754 -39.10515,-31.8902 -49.00426,-52.73738 -8.52994,-17.96378 -13.84509,-41.314698 -14.70913,-64.621348 -0.89761,-24.212275 6.28535,-47.767832 21.41726,-70.235003 6.17425,-9.167251 12.87312,-15.872163 21.84728,-21.866986 10.53246,-7.035786 24.13137,-12.177399 38.629169,-14.605296 5.09466,-0.853186 15.36937,-2.166268 16.69052,-2.133008 1.11545,0.02808 1.0176,0.08132 -2.93219,1.595254 -5.3194,2.038901 -13.07082,6.247543 -12.67781,6.883435 0.10771,0.174283 2.44866,0.318298 5.2021,0.320033 6.53246,0.0041 15.166992,0.538159 22.668384,1.402027 12.993455,1.496346 21.93774,3.883844 28.710463,7.663681 2.449011,1.366788 6.367695,4.978516 6.367695,5.868903 0,0.29168 -0.374227,0.979067 -0.831617,1.527528 -1.184991,1.420943 -3.416166,5.46404 -5.353396,9.700862 -5.679711,12.421807 -6.199861,24.676054 -1.452354,34.216064 1.912571,3.843274 2.56607,3.92363 2.40362,0.295558 -0.261222,-5.834038 1.299531,-14.013078 3.601525,-18.873611 4.11607,-8.690846 9.381603,-13.129895 18.606936,-15.686366 3.478452,-0.963926 6.472364,-0.911362 10.734276,0.188461 9.510176,2.454187 17.722433,7.653031 26.211762,16.593583 2.457083,2.587682 4.039895,3.996288 4.305836,3.831929 0.960508,-0.5936 -0.424621,-6.936646 -2.471839,-11.319497 -2.482332,-5.314375 -6.543023,-10.318697 -11.922111,-14.692602 -1.212674,-0.986059 -2.204861,-1.971985 -2.204861,-2.190944 0,-0.828862 10.125629,-4.12316 16.758831,-5.452364 6.96795,-1.396283 16.665123,-1.61212 23.105057,-0.514265 5.543246,0.944989 11.978248,3.115818 17.588349,5.93338 1.814509,0.911299 3.367949,1.588068 3.45209,1.503927 0.350523,-0.350527 -5.269548,-5.10062 -8.869606,-7.496605 -6.7457,-4.489542 -15.107087,-8.112915 -22.34342,-9.682431 -4.480888,-0.971874 -10.427134,-1.525636 -13.577545,-1.264447 -5.973819,0.495272 -14.349137,2.350558 -19.453641,4.309339 -0.333766,0.12808 -0.540671,0.01012 -0.540671,-0.30826 0,-0.873662 3.723213,-4.08825 13.4845,-11.64239 4.090374,-3.165492 2.941782,-2.966233 13.679389,-2.373125 35.089263,1.938203 61.127134,10.145109 79.639109,25.101535 9.63508,7.784493 19.01993,19.711415 24.71878,31.414348 6.49883,13.345731 10.42882,28.680067 11.73321,45.781543 0.52019,6.81992 0.2388,20.66339 -0.55214,27.16389 -2.91277,23.939198 -10.88143,44.362798 -23.25506,59.602548 -19.4597,23.96717 -43.228521,40.42194 -71.950374,49.81008 -15.995237,5.22827 -32.273328,8.46999 -51.20158,10.19663 -5.476388,0.49955 -27.687005,0.72158 -33.161111,0.33149 z M -70.477111,59.328202 c 7.92854,-1.28592 13.467366,-4.71678 15.839271,-9.811178 1.265163,-2.717327 1.140654,-4.256303 -0.56406,-6.972056 -2.180198,-3.473231 -2.885348,-5.204263 -3.073171,-7.544153 -0.339721,-4.232218 1.420534,-8.706622 7.188362,-18.272142 4.483996,-7.436382 5.484072,-9.687027 5.693283,-12.812596 0.122248,-1.82633 0.02081,-2.775881 -0.379081,-3.549219 -1.998958,-3.865563 -7.95256,-6.423508 -18.059396,-7.75916 -6.465467,-0.854435 -17.787678,-0.517204 -24.341668,0.725011 -20.735379,3.930096 -35.097599,14.887793 -40.199519,30.670316 -3.63003,11.229322 -0.69923,19.57937 8.65402,24.655959 9.04682,4.910264 21.445249,9.235778 30.487169,10.636238 4.36341,0.67583 14.67933,0.69397 18.75479,0.033 z M 103.94012,-9.29055 c 2.85658,-0.793535 3.78608,-3.314142 2.36154,-6.404028 -3.14729,-6.826666 -14.741291,-14.459168 -26.749222,-17.609413 -6.841849,-1.794941 -13.740835,-0.184856 -15.618946,3.645143 -1.213408,2.474482 0.08041,4.545707 3.561845,5.702056 0.936819,0.311161 4.758482,1.183351 8.492589,1.938197 8.605827,1.739656 9.583659,2.208731 14.019194,6.72508 5.259554,5.355385 9.573468,7.214012 13.933,6.002965 z M -28.388846,-34.528017 c -4.693295,-4.793936 -15.445447,-10.17579 -22.622622,-11.323465 -3.810064,-0.609254 0.07308,-1.04552 12.605,-1.416148 l 7.786546,-0.23029 0.723632,1.02454 c 1.230193,1.741742 2.812736,5.172425 3.239082,7.021763 0.542816,2.354566 0.669414,6.240642 0.20864,6.404441 -0.200138,0.07114 -1.073263,-0.595235 -1.940278,-1.480841 z m 18.002775,-5.678682 c 0,-0.201863 -0.794169,-1.688401 -1.764823,-3.303418 -0.970651,-1.615013 -1.69212,-3.009095 -1.603259,-3.097957 0.187798,-0.187797 6.190305,0.273922 6.190305,0.476166 0,0.07455 -0.488107,1.36998 -1.084679,2.878747 -1.038723,2.626981 -1.737544,3.852235 -1.737544,3.046462 z M 0.197263,-41.4417 c 0,-0.155571 0.394239,-1.174298 0.876084,-2.263838 l 0.876085,-1.980985 2.739887,0.249936 c 2.538991,0.231613 3.258143,0.382351 2.88688,0.605109 -1.46509,0.879052 -7.378936,3.59579 -7.378936,3.389778 z"
           style="fill:#ec2f22;stroke-width:1.24371541"
           sodipodi:nodetypes="cssssssscsccssscssssssscscsssscssscssssscsssccccscssccsssssccscssssssssscacsssscscssscccs" />
        <path
           inkscape:connector-curvature="0"
           id="path4535"
           d="m -30.318015,205.54882 c -22.236485,-1.58458 -44.251226,-6.15006 -60.593716,-12.56611 -4.49145,-1.76334 -16.625639,-7.67431 -20.897949,-10.18009 -17.65005,-10.35207 -31.79825,-23.68637 -43.04144,-40.56541 -11.0821,-16.6372 -17.87161,-37.23907 -21.22031,-64.390248 -0.48783,-3.95525 -0.63116,-7.71534 -0.63207,-16.58056 -0.001,-10.186987 0.0872,-12.015921 0.79129,-16.404162 3.01494,-18.790302 10.30062,-36.29486 21.95591,-52.751227 7.49768,-10.586134 17.34074,-18.801443 29.7994,-24.87145 8.19242,-3.991447 15.70444,-6.525919 25.013109,-8.439146 4.88535,-1.004097 17.27167,-2.679488 19.41124,-2.625594 l 1.43676,0.03619 -1.76389,0.601514 c -0.97014,0.330831 -2.71639,1.047344 -3.88055,1.592248 -1.16417,0.544904 -2.31511,0.99877 -2.55764,1.008592 -0.24254,0.0098 -0.44098,0.176604 -0.44098,0.370632 0,0.194027 -0.0923,0.260491 -0.20508,0.147697 -0.11279,-0.112797 -0.7556,0.168511 -1.42846,0.625126 -0.67286,0.456618 -1.7712,1.011008 -2.44075,1.231977 -0.66956,0.220973 -1.21737,0.51398 -1.21737,0.651126 0,0.137149 -0.47905,0.532342 -1.06456,0.878208 -0.5855,0.345867 -0.97301,0.776969 -0.86112,0.958004 0.11189,0.181038 2.45625,0.330578 5.20969,0.332313 6.53246,0.0041 15.166992,0.538159 22.668384,1.402027 12.993455,1.496346 21.93774,3.883844 28.710463,7.663681 2.421678,1.351534 6.367695,4.975165 6.367695,5.847464 0,0.430463 -0.52506,1.224418 -2.383737,3.604507 -0.424,0.542939 -4.215938,8.3676 -4.472287,9.228557 -0.474119,1.592333 -0.990636,1.610607 -4.117393,0.145669 -3.286629,-1.539843 -8.833697,-2.87571 -19.012693,-4.578716 -19.796652,-3.3121 -35.962542,-3.145078 -50.623611,0.523028 -7.66042,1.916592 -12.1638,3.882947 -18.52083,8.086929 -8.35082,5.522503 -14.60345,12.118072 -16.40721,17.307101 -0.57476,1.653441 -0.95635,5.073435 -1.45408,13.031875 -0.36869,5.895309 1.00764,10.913622 4.22279,15.396923 3.55455,4.956577 11.14351,10.33261 22.98711,16.284106 24.525899,12.32445 50.910015,19.39348 84.490274,22.63726 4.893815,0.47273 25.613614,0.61522 31.606518,0.21737 8.965801,-0.59523 19.402897,-1.92818 25.367092,-3.2397 12.955609,-2.8489 20.644499,-5.36718 31.220833,-10.22544 C 73.910255,57.740042 88.376892,45.624576 94.987386,31.69129 97.301531,26.813644 98.015493,23.799285 98.00921,18.933104 98.000214,11.950619 95.843091,5.900516 91.376875,0.331181 83.290193,-9.752844 71.11344,-15.016059 54.661716,-15.538378 c -10.830101,-0.343839 -21.07154,1.267022 -31.802218,5.002124 -1.970609,0.685927 -3.747046,1.247136 -3.947639,1.247136 -0.20059,0 -0.802496,-0.497032 -1.337571,-1.104515 -0.535073,-0.607483 -2.004734,-1.937533 -3.265915,-2.955664 -3.230523,-2.607952 -3.880555,-3.208419 -3.880555,-3.584652 0,-0.767991 10.40657,-4.111484 16.758831,-5.384388 6.96795,-1.396283 16.665123,-1.61212 23.105057,-0.514265 5.543246,0.944989 11.978248,3.115818 17.588349,5.93338 1.814509,0.911299 3.365398,1.590615 3.446428,1.509589 0.183109,-0.183113 -4.694926,-4.714713 -6.284197,-5.837894 -3.887427,-2.747355 -12.225764,-7.459341 -14.221413,-8.036506 -0.531411,-0.153692 -7.408334,-2.591972 -7.408334,-2.626699 0,-0.04871 -0.977868,-0.27656 -2.116666,-0.493183 -0.582084,-0.110727 -1.852084,-0.370032 -2.822222,-0.576238 -7.60505,-1.616481 -17.994704,-0.841432 -27.016611,2.015388 -2.142003,0.678271 -4.122974,1.320877 -4.402162,1.428012 -0.292093,0.112085 -0.507616,-0.01411 -0.507616,-0.297187 0,-0.626008 2.684135,-3.207632 5.644445,-5.428879 1.26118,-0.946316 2.68993,-2.089919 3.175,-2.541337 0.485069,-0.451418 2.469045,-2.042788 4.40884,-3.536379 l 3.526896,-2.715619 4.234215,0.102235 c 31.603688,0.763051 58.318818,7.404128 76.989052,19.138596 10.5673,6.641683 17.46091,13.112619 25.30108,23.749764 11.20266,15.199208 18.18282,35.987132 19.97546,59.489771 0.52019,6.81992 0.2388,20.66339 -0.55214,27.16389 -2.91277,23.939198 -10.88143,44.362798 -23.25506,59.602548 -19.4597,23.96717 -43.228521,40.42194 -71.950374,49.81008 -15.995237,5.22827 -32.273328,8.46999 -51.20158,10.19663 -5.476388,0.49955 -27.687005,0.72158 -33.161111,0.33149 z m -24.278998,-21.19357 c 6.79335,-0.94377 11.48402,-5.10731 11.48402,-10.19347 0,-5.37384 -5.304158,-7.94912 -18.955021,-9.20304 -26.645877,-2.4476 -44.765836,-13.71055 -59.270096,-36.84095 -5.30229,-8.45572 -7.17492,-12.74369 -16.40786,-37.570828 -2.93008,-7.87891 -4.94668,-12.17172 -7.20351,-15.33439 -6.18018,-8.66074 -12.62832,-10.60144 -16.78294,-5.05116 -1.97544,2.63905 -2.50314,4.47629 -2.71409,9.44944 -0.15842,3.73469 -0.0432,5.26004 0.7524,9.96449 2.72922,16.137388 7.74996,27.531808 19.05948,43.254968 11.32309,15.74202 14.17072,19.04305 20.93088,24.26356 3.36334,2.59733 9.81643,6.91556 12.59963,8.43133 0.97014,0.52835 3.03389,1.65806 4.58611,2.51048 3.46156,1.90094 12.295949,6.24289 17.991659,8.8426 9.02736,4.12038 16.462277,6.33225 24.694448,7.34653 4.630829,0.57056 5.934312,0.58898 9.23489,0.13044 z M 104.87678,-8.923576 c 0.84154,-0.382016 1.81191,-1.186092 2.22576,-1.844337 3.62779,-5.770054 -8.897623,-17.227627 -24.36013,-22.283327 -4.962733,-1.622644 -8.432422,-2.162309 -10.931288,-1.700223 -6.569636,1.214839 -10.202468,4.674774 -8.69544,8.281595 0.994879,2.381081 3.425846,3.337327 13.513022,5.315497 3.370485,0.660975 6.809472,1.552099 7.761111,2.011087 1.06565,0.513973 2.970259,2.111777 5.060223,4.245088 3.796905,3.875655 5.419316,5.035772 8.353774,5.97342 2.669588,0.85301 5.195568,0.85344 7.072968,0.0011 z M -18.32357,5.4916 c -1.906937,-0.429538 -10.027733,-4.547157 -10.422428,-5.284653 -0.649951,-1.214441 5.25581,-5.956688 9.800106,-7.869357 4.247879,-1.787906 7.379596,-2.439776 10.671387,-2.221255 2.841801,0.188648 9.124466,1.775242 11.26854,2.845707 0.499068,0.249167 1.701144,0.836775 2.671283,1.305796 0.970139,0.469022 1.763889,1.011516 1.763889,1.205544 0,0.361537 -8.752297,5.620374 -12.891156,7.745681 -4.813533,2.471751 -8.828094,3.181088 -12.861621,2.272537 z m -10.583333,-40.455506 c -3.198672,-3.066655 -8.009675,-6.053497 -13.758333,-8.541671 -0.654453,-0.283262 -4.36475,-1.523442 -4.7625,-1.591881 -0.09701,-0.01669 -1.260366,-0.253238 -2.585226,-0.525653 -3.34813,-0.688439 -2.298372,-0.947374 4.90511,-1.209904 3.283715,-0.119673 7.897569,-0.303167 10.253002,-0.407766 l 4.28261,-0.190178 0.699791,0.991062 c 1.208842,1.711984 2.792254,5.153511 3.215241,6.98828 0.534427,2.31818 0.669237,6.241923 0.219749,6.396052 -0.194028,0.06653 -1.305278,-0.792223 -2.469444,-1.908341 z m 18.520832,-5.405342 c 0,-0.291271 -0.635,-1.506823 -1.411111,-2.70123 -0.776111,-1.19441 -1.411111,-2.337227 -1.411111,-2.539591 0,-0.202364 -0.168119,-0.367936 -0.373598,-0.367936 -0.205479,0 -0.291472,-0.132881 -0.191097,-0.29529 0.154475,-0.24995 5.835361,-0.14104 6.135049,0.117617 0.159015,0.137237 -2.054447,5.603818 -2.421699,5.980867 -0.203923,0.209363 -0.326433,0.136391 -0.326433,-0.194437 z m 10.583334,-1.082957 c 0,-0.149793 0.374544,-1.119258 0.832319,-2.154372 l 0.832319,-1.88202 2.430875,0.148336 c 1.336982,0.08158 2.593202,0.24928 2.791601,0.372657 0.198399,0.123377 -1.270039,1.026093 -3.263194,2.006032 -1.993156,0.979942 -3.62392,1.659156 -3.62392,1.509367 z"
           style="fill:#dd1e25;stroke-width:1.24371541"
           sodipodi:nodetypes="cscscccssssccccsccsscccsssccssssccsssccsscsscscssssscscscsscsscscssscsssccccsssscsscssccsscccsssscscccscsscsssssccsasccccssccsccssscccscs" />
        <path
           inkscape:connector-curvature="0"
           id="path4533"
           d="m -30.318015,205.54882 c -21.988931,-1.56694 -43.431769,-5.97686 -60.080616,-12.35614 -1.61184,-0.6176 -2.87554,-1.178 -2.80822,-1.24532 0.0673,-0.0673 2.17985,0.35492 4.69451,0.9383 40.24547,9.33667 88.282189,6.66468 130.125633,-7.23811 21.212873,-7.04813 39.283011,-19.04315 59.354448,-39.39973 20.51186,-20.80324 28.41464,-33.2735 33.84617,-53.407808 4.0425,-14.98531 4.35358,-35.60862 0.82477,-54.68055 -3.09435,-16.723859 -10.5637,-37.428305 -18.55527,-51.433727 -1.22426,-2.145548 -2.16695,-3.95998 -2.09486,-4.032063 0.29109,-0.291094 6.45653,5.907931 9.52145,9.57332 4.32863,5.176675 6.89217,8.687343 9.57825,13.117015 8.77009,14.462968 14.15757,32.654447 15.714,53.060205 0.52019,6.81992 0.2388,20.66339 -0.55214,27.16389 -2.91277,23.939198 -10.88143,44.362798 -23.25506,59.602548 -19.4597,23.96717 -43.228521,40.42194 -71.950374,49.81008 -15.995237,5.22827 -32.273328,8.46999 -51.20158,10.19663 -5.476388,0.49955 -27.687005,0.72158 -33.161111,0.33149 z m 2.822223,-207.386342 c 5.302754,-5.577413 14.678416,-9.046926 21.431249,-7.930751 0.727604,0.120266 1.322917,0.322615 1.322917,0.449668 0,0.347991 -5.265918,1.453875 -6.879167,1.444678 -0.776111,-0.0044 -2.002282,-0.172226 -2.724823,-0.372896 -1.150084,-0.319405 -1.643095,-0.227729 -3.958188,0.736046 -3.232175,1.345558 -6.042572,3.137817 -8.839211,5.636983 l -2.116666,1.89152 z M 12.852262,-14.49262 c -0.43881,-0.559526 -0.426332,-0.572004 0.133195,-0.133195 0.339548,0.266295 0.617361,0.544107 0.617361,0.617362 0,0.29035 -0.289698,0.103473 -0.750556,-0.484167 z m 54.425302,-2.236766 c -4.178984,-2.162831 -9.895981,-4.198299 -13.810858,-4.917189 -1.445803,-0.265494 -6.724826,-0.439159 -14.2875,-0.470017 l -11.994444,-0.04894 -4.7625,1.290514 c -5.516587,1.49485 -11.272971,3.586356 -11.692981,4.248492 -0.224501,0.353917 -0.291889,0.333502 -0.296062,-0.08968 -0.0096,-0.975639 9.448662,-4.13838 16.75343,-5.602154 6.96795,-1.396283 16.665123,-1.61212 23.105057,-0.514265 5.526906,0.942202 11.978671,3.11603 17.544517,5.911367 1.7904,0.899191 3.371539,1.634895 3.513645,1.634895 0.142103,0 -0.529413,-0.821475 -1.492257,-1.825501 l -1.750628,-1.825498 2.028472,1.691964 c 1.906905,1.590566 2.585075,2.712607 1.5875,2.626547 -0.242534,-0.02092 -2.242961,-0.970661 -4.445391,-2.110528 z m -101.013611,-1.964783 c -1.525284,-0.788808 -6.20468,-1.877029 -9.634745,-2.240616 -4.989096,-0.528845 -12.778186,-0.408061 -21.556285,0.334264 -7.02233,0.593849 -12.593914,0.883349 -14.691634,0.763376 -0.88918,-0.05085 -0.75776,-1.016656 0.41281,-3.033917 2.4701,-4.256733 6.452552,-6.931226 14.668443,-9.850885 1.672054,-0.594191 -1.04334,-0.975783 -14.993053,-2.106951 -0.87313,-0.0708 0.39687,-0.07164 2.82222,-0.0018 5.163876,0.148569 14.837342,1.22846 20.313268,2.267659 7.671611,1.455889 14.040845,3.565941 18.827369,6.237287 2.458339,1.371992 6.367695,4.979663 6.367695,5.876301 0,0.295744 -0.357187,0.922059 -0.79375,1.391814 -0.730617,0.786165 -0.869199,0.815079 -1.742338,0.363527 z M 6.547262,-29.81394 c 0,-0.576396 2.668115,-3.198908 4.938889,-4.854479 1.062934,-0.774961 0.654939,-0.274807 -1.234722,1.513617 -1.552222,1.469066 -2.688287,2.677326 -2.524584,2.685024 0.1637,0.0077 1.830575,-0.454759 3.704167,-1.027681 4.513037,-1.380035 8.048022,-2.066177 11.696806,-2.270361 1.649236,-0.09229 2.522361,-0.093 1.940277,-0.0014 -8.429787,1.324024 -13.501817,2.521454 -18.013217,4.25264 -0.292093,0.111923 -0.507616,-0.01425 -0.507616,-0.297349 z m -34.936108,-4.71637 c -1.434278,-1.467119 -1.486863,-1.578762 -0.583286,-1.238423 0.546206,0.205733 1.322885,0.374061 1.725951,0.374061 0.683588,0 0.718245,-0.139679 0.515624,-2.078243 -0.262707,-2.513463 -1.226866,-5.187808 -2.883147,-7.997175 -0.67945,-1.152479 -0.899488,-1.69854 -0.488975,-1.213471 1.121346,1.325005 2.9851,5.237244 3.445228,7.231944 0.543002,2.353977 0.669766,6.240604 0.208883,6.404441 -0.200138,0.07114 -1.073263,-0.596265 -1.940278,-1.483134 z m 63.79774,1.011318 c 0.254659,-0.101907 0.558934,-0.08938 0.676158,0.02783 0.117225,0.117225 -0.09114,0.200604 -0.46302,0.185286 -0.410969,-0.01693 -0.49456,-0.10052 -0.213138,-0.213134 z m -3.366724,-0.356263 c 0.343242,-0.08944 0.819492,-0.08356 1.058333,0.01309 0.238841,0.09664 -0.04199,0.169817 -0.624075,0.162627 -0.582083,-0.0072 -0.777501,-0.08625 -0.434258,-0.175697 z m -126.565741,-1.519417 c -0.29289,-0.473911 0.0534,-0.975216 0.98979,-1.432892 0.66374,-0.324411 0.6487,-0.277509 -0.10554,0.328994 -1.24195,0.998682 -0.81573,1.081436 6.17131,1.198266 l 5.99722,0.100277 -6.41737,0.07907 c -3.98524,0.0491 -6.50001,-0.05464 -6.63541,-0.273713 z m 110.595833,-2.955417 c 0,-0.07325 0.277813,-0.351067 0.617361,-0.617361 0.559527,-0.43881 0.572005,-0.426332 0.133195,0.133194 -0.460858,0.58764 -0.750556,0.774517 -0.750556,0.484167 z m 1.763889,-1.411111 c 0,-0.07325 0.277813,-0.351067 0.617361,-0.617361 0.559527,-0.43881 0.572005,-0.426332 0.133195,0.133194 -0.460858,0.58764 -0.750556,0.774517 -0.750556,0.484167 z m -28.224119,-0.413611 c -0.0018,-0.322693 2.112182,-5.826252 2.35332,-6.126575 0.06491,-0.08084 0.203743,-0.06127 0.308515,0.0435 0.217459,0.21746 -1.837143,5.573466 -2.333505,6.083071 -0.206167,0.211666 -0.327131,0.211666 -0.32833,0 z m 10.585231,-1.148228 c 0,-0.744647 1.721862,-4.302189 2.082274,-4.302189 0.196465,0 -0.0999,0.966558 -0.65859,2.147912 -1.079349,2.282279 -1.423684,2.803317 -1.423684,2.154277 z"
           style="fill:#b91f25;stroke-width:1.24371541"
           sodipodi:nodetypes="ccscssssscsscssscccsssccsscsscsscsscsccsscsccsccccsscccccssssccssccssccssssscccscsccccccccccccsscsccscssscasccccccsscs" />
      </g>
      <path
         inkscape:connector-curvature="0"
         id="path4607"
         d="m -6.3828867,89.274607 c -25.0948053,0.0382 -37.7231863,0.712696 -39.0944593,2.083937 -0.361005,0.36108 -0.05474,3.263002 0.681379,6.449273 1.179781,5.106833 1.705945,5.965773 4.441449,7.257513 1.706788,0.80594 3.488158,2.15291 3.957633,2.99177 0.469465,0.83886 1.892988,7.45236 3.163975,14.69803 2.859776,16.30369 5.651553,24.49257 11.041192,32.38057 7.762517,11.36085 16.708954,16.47484 32.973116,18.84953 v 0.002 c 5.67382,0.82841 21.488469,0.41757 27.891987,-0.72486 11.72485,-2.09178 19.429999,-6.98232 26.406012,-16.75836 5.497787,-7.7044 8.325544,-14.31776 11.673618,-27.30304 1.524058,-5.91073 3.119336,-11.09443 3.544481,-11.51958 1.72299,-1.72277 8.609652,-2.49318 14.257699,-1.59285 5.956315,0.94953 9.006145,3.15563 9.006145,6.51454 0,3.43879 5.86163,21.16961 8.93188,27.01854 10.03199,19.11114 24.90031,26.11693 52.30291,24.64106 17.37893,-0.93604 25.76685,-4.21853 34.68919,-13.57272 8.28308,-8.68391 12.29063,-18.21855 15.41379,-36.67708 2.58124,-15.25562 3.26533,-17.07339 7.02192,-18.64296 2.44837,-1.02303 3.32626,-2.10195 4.12799,-5.07934 0.55987,-2.079536 0.88918,-5.108546 0.73208,-6.730156 -0.27877,-2.876251 -0.4225,-2.962133 -5.8531,-3.542692 -9.03679,-0.966148 -58.51527,-0.873363 -69.58497,0.13045 -19.92412,1.806797 -34.41492,3.872914 -40.82317,5.822322 -9.42173,2.86567 -29.682832,2.88338 -38.967584,0.03158 C 57.937205,91.821884 27.829229,89.22161 -6.3828867,89.27385 Z M 168.72116,100.43359 c 2.52367,-0.002 5.04526,0.021 7.53111,0.0744 16.01582,0.33384 18.18797,0.57229 22.00625,2.42643 7.91801,3.84496 10.12503,11.86584 7.40066,26.88988 -3.19579,17.62366 -11.74772,29.99633 -23.8691,34.53155 -2.79596,1.04606 -8.9125,2.30491 -13.59082,2.79788 -4.67835,0.49296 -9.13226,0.84523 -9.89773,0.78281 -19.92461,-1.62193 -23.54242,-2.79791 -30.4543,-9.89409 -11.56063,-11.86888 -19.32574,-38.40796 -13.53101,-46.24864 2.68658,-3.63513 7.25136,-6.5657 12.78443,-8.20885 6.1959,-1.83997 23.95474,-3.13455 41.62051,-3.15125 z m -153.764647,0.44032 c 21.755887,0.046 28.415705,0.36568 34.792467,1.67078 14.691261,3.00678 21.15576,9.5251 19.911461,20.07635 -1.712083,14.51789 -10.70652,32.65316 -19.141332,38.59247 -5.795606,4.08097 -8.483308,4.92414 -18.862203,5.9256 -5.102939,0.49233 -9.904271,0.84829 -10.669701,0.79009 -17.0798145,-1.29887 -23.7081744,-3.4752 -31.068617,-10.2022 -8.825206,-8.06578 -14.362944,-22.69431 -14.692558,-38.81718 -0.179894,-8.80122 2.127929,-13.14463 8.56581,-16.12233 4.04152,-1.86942 5.629819,-1.96758 31.164673,-1.91358 z"
         style="fill:#000000;stroke-width:1" />
      <g
         transform="translate(47.861412,-273.20409)"
         id="g4690">
        <path
           inkscape:connector-curvature="0"
           id="path4659"
           d="m 99.03404,380.18461 a 30,30 0 0 0 -29.99972,29.99973 30,30 0 0 0 29.99972,30.00023 30,30 0 0 0 30.00024,-30.00023 30,30 0 0 0 -30.00024,-29.99973 z m 7.74423,7.52978 a 13.985118,13.985118 0 0 1 13.9852,13.98519 13.985118,13.985118 0 0 1 -13.9852,13.98468 13.985118,13.985118 0 0 1 -13.98519,-13.98468 13.985118,13.985118 0 0 1 13.98519,-13.98519 z m -17.38705,33.63982 a 5.4806542,5.4806542 0 0 1 5.4808,5.48079 5.4806542,5.4806542 0 0 1 -5.4808,5.48028 5.4806542,5.4806542 0 0 1 -5.48028,-5.48028 5.4806542,5.4806542 0 0 1 5.48028,-5.48079 z"
           style="opacity:1;fill:#000000;fill-opacity:1;stroke:none;stroke-width:0.49999997;stroke-linecap:round;stroke-linejoin:bevel;stroke-miterlimit:4;stroke-dasharray:none;stroke-opacity:0;paint-order:normal" />
        <path
           inkscape:connector-curvature="0"
           id="path4661"
           d="m 106.77827,387.71439 a 13.985119,13.985119 0 0 0 -13.985188,13.98519 13.985119,13.985119 0 0 0 13.985188,13.98468 13.985119,13.985119 0 0 0 13.9852,-13.98468 13.985119,13.985119 0 0 0 -13.9852,-13.98519 z M 89.391223,421.3542 a 5.4806542,5.4806542 0 0 0 -5.480285,5.48079 5.4806542,5.4806542 0 0 0 5.480285,5.48029 5.4806542,5.4806542 0 0 0 5.480802,-5.48029 5.4806542,5.4806542 0 0 0 -5.480802,-5.48079 z"
           style="opacity:1;fill:#ffffff;fill-opacity:1;stroke:none;stroke-width:0.5;stroke-linecap:round;stroke-linejoin:bevel;stroke-miterlimit:4;stroke-dasharray:none;stroke-opacity:0;paint-order:normal" />
      </g>
      <g
         transform="translate(-61.524898,-273.20409)"
         id="g4696">
        <path
           style="opacity:1;fill:#000000;fill-opacity:1;stroke:none;stroke-width:0.49999997;stroke-linecap:round;stroke-linejoin:bevel;stroke-miterlimit:4;stroke-dasharray:none;stroke-opacity:0;paint-order:normal"
           d="m 99.03404,380.18461 a 30,30 0 0 0 -29.99972,29.99973 30,30 0 0 0 29.99972,30.00023 30,30 0 0 0 30.00024,-30.00023 30,30 0 0 0 -30.00024,-29.99973 z m 7.74423,7.52978 a 13.985118,13.985118 0 0 1 13.9852,13.98519 13.985118,13.985118 0 0 1 -13.9852,13.98468 13.985118,13.985118 0 0 1 -13.98519,-13.98468 13.985118,13.985118 0 0 1 13.98519,-13.98519 z m -17.38705,33.63982 a 5.4806542,5.4806542 0 0 1 5.4808,5.48079 5.4806542,5.4806542 0 0 1 -5.4808,5.48028 5.4806542,5.4806542 0 0 1 -5.48028,-5.48028 5.4806542,5.4806542 0 0 1 5.48028,-5.48079 z"
           id="path4692"
           inkscape:connector-curvature="0" />
        <path
           style="opacity:1;fill:#ffffff;fill-opacity:1;stroke:none;stroke-width:0.5;stroke-linecap:round;stroke-linejoin:bevel;stroke-miterlimit:4;stroke-dasharray:none;stroke-opacity:0;paint-order:normal"
           d="m 106.77827,387.71439 a 13.985119,13.985119 0 0 0 -13.985188,13.98519 13.985119,13.985119 0 0 0 13.985188,13.98468 13.985119,13.985119 0 0 0 13.9852,-13.98468 13.985119,13.985119 0 0 0 -13.9852,-13.98519 z M 89.391223,421.3542 a 5.4806542,5.4806542 0 0 0 -5.480285,5.48079 5.4806542,5.4806542 0 0 0 5.480285,5.48029 5.4806542,5.4806542 0 0 0 5.480802,-5.48029 5.4806542,5.4806542 0 0 0 -5.480802,-5.48079 z"
           id="path4694"
           inkscape:connector-curvature="0" />
      </g>
      <g
         style="stroke-width:0.76274478"
         transform="matrix(1.3110545,0,0,1.3110545,-482.97287,53.235513)"
         id="g4756">
        <path
           inkscape:connector-curvature="0"
           style="fill:#1a1a1a;fill-opacity:1;stroke:none;stroke-width:0.20180956px;stroke-linecap:butt;stroke-linejoin:miter;stroke-opacity:1"
           d="m 407.18523,101.0356 c -0.71261,-2.773061 0.98009,-5.067125 5.15616,-5.289677 4.17607,-0.222551 10.83553,1.626061 16.84914,2.505796 6.01361,0.879735 11.38129,0.790644 17.28351,-0.144838 5.90221,-0.935483 12.33895,-2.71728 16.41464,-2.271819 4.07569,0.44546 5.79066,3.11814 4.44334,6.058038 -1.34733,2.93991 -5.75726,6.14713 -10.46804,8.47471 -4.71078,2.32758 -9.72144,3.7751 -14.10941,4.47677 -4.38797,0.70168 -8.15153,0.65714 -12.81797,-0.22266 -4.66645,-0.87979 -10.23419,-2.59466 -14.57745,-5.07812 -4.34326,-2.48346 -7.46131,-5.73513 -8.17392,-8.5082 z"
           id="path4741" />
        <path
           inkscape:connector-curvature="0"
           style="opacity:1;fill:#ffffff;fill-opacity:1;stroke:#ffffff;stroke-width:9.80157089;stroke-linecap:round;stroke-linejoin:bevel;stroke-miterlimit:4;stroke-dasharray:none;stroke-opacity:0;paint-order:normal"
           d="m 1698.5723,368.83594 c -3.7255,0.70205 -7.4464,1.38005 -11.1114,1.96094 -22.3076,3.53568 -42.5956,3.87381 -65.3242,0.54882 -4.4257,-0.64744 -8.9452,-1.45072 -13.4687,-2.29101 v 25.65039 c 0,6.43568 5.1815,11.61719 11.6172,11.61719 h 21.7187 c 6.4357,0 11.6152,-5.18151 11.6152,-11.61719 0,6.43568 5.1815,11.61719 11.6172,11.61719 h 21.7188 c 6.4357,0 11.6172,-5.18151 11.6172,-11.61719 z"
           transform="scale(0.26458333)"
           id="rect4745" />
      </g>
      <g
         transform="translate(256.05209,31.748204)"
         id="g4796">
        <path
           inkscape:connector-curvature="0"
           id="path4781"
           d="m -191.3157,242.61985 c -1.16234,-0.37182 -5.09836,-4.31974 -7.59975,-7.62275 -4.87641,-6.43913 -8.57153,-13.98053 -11.20886,-22.87626 -1.32978,-4.48536 -1.80472,-8.37225 -1.80904,-14.80499 -0.006,-8.84435 1.02549,-12.77057 4.05548,-15.43767 1.90587,-1.67762 3.27407,-2.02909 7.78836,-2.0007 3.51146,0.0221 4.00456,0.0865 5.82083,0.76042 2.84849,1.0569 4.33813,1.85183 6.82513,3.6421 4.53379,3.26365 10.2596,9.82703 13.5564,15.5394 l 1.34962,2.33847 2.04858,-2.07909 c 2.59452,-2.63315 4.15313,-3.4192 6.77965,-3.4192 2.29591,0 4.08242,0.76284 6.29772,2.68911 0.84437,0.7342 1.58523,1.28491 1.64636,1.22378 0.0611,-0.0611 0.78224,-1.11654 1.60247,-2.34533 3.51309,-5.26305 7.20377,-8.96763 11.8847,-11.92944 4.01109,-2.53797 7.2369,-4.15861 10.73973,-5.39559 2.54188,-0.89764 2.99858,-0.97549 5.92902,-1.01065 1.74625,-0.0209 3.50024,0.0529 3.89775,0.16417 0.81718,0.22868 2.46092,1.58591 2.88866,2.38515 1.12357,2.09941 2.07768,9.12805 2.0731,15.27196 -0.003,4.57447 -0.66661,11.61763 -1.3329,14.15521 -0.30567,1.16416 -0.76989,3.13129 -1.0316,4.37139 -2.18734,10.36444 -8.98466,21.81433 -14.4827,24.39569 -1.9113,0.89736 -3.99133,1.18016 -5.56063,0.75601 -2.7092,-0.73224 -7.87803,-5.11794 -11.09592,-9.41476 -1.90579,-2.54478 -4.18285,-6.2077 -5.52372,-8.88555 -0.54044,-1.0793 -1.02085,-2.00463 -1.06758,-2.05629 -0.0467,-0.0517 -0.45968,0.33284 -0.91766,0.85445 -0.45799,0.52162 -1.59197,1.32218 -2.51997,1.77903 -1.47621,0.72674 -1.89534,0.81693 -3.3508,0.72102 -2.15735,-0.14215 -4.13158,-1.05933 -6.37284,-2.96065 -0.96638,-0.8198 -1.80399,-1.49055 -1.86136,-1.49055 -0.0574,0 -0.31592,0.56555 -0.57454,1.25677 -1.06805,2.85456 -4.75766,9.95877 -6.77208,13.03939 -2.77363,4.24166 -5.83588,7.44385 -7.83317,8.19114 -1.54093,0.57653 -2.88357,0.63781 -4.26844,0.19481 z"
           style="fill:#cba6ab;stroke-width:1" />
        <path
           inkscape:connector-curvature="0"
           id="path4779"
           d="m -191.35826,242.44257 c -2.27188,-1.20339 -7.93152,-7.86849 -11.08289,-13.05179 -3.96158,-6.51594 -7.77779,-16.58467 -8.89775,-23.47597 -0.59031,-3.63223 -0.79222,-10.17327 -0.41653,-13.49375 0.89199,-7.88375 2.91742,-10.94367 8.14519,-12.30533 4.20181,-1.09443 9.97031,0.31338 14.99091,3.65855 4.61608,3.07564 10.40402,9.41933 14.04507,15.39366 0.7095,1.16418 1.45713,2.39116 1.66141,2.72663 0.36881,0.60571 0.38569,0.59516 2.41119,-1.50518 2.57843,-2.67368 4.12998,-3.46523 6.79236,-3.46523 2.37317,0 4.09507,0.76983 6.18886,2.76697 0.84255,0.80365 1.59652,1.46119 1.67549,1.46119 0.079,0 0.57521,-0.72455 1.10273,-1.61011 2.86651,-4.81203 7.26905,-9.55449 11.40503,-12.28561 11.29573,-7.45895 20.59572,-9.52856 23.82028,-5.30094 1.99309,2.61307 3.23238,12.7825 2.53286,20.78416 -0.3799,4.34565 -0.96343,8.06368 -1.59873,10.18646 -0.2613,0.87313 -0.62014,2.36141 -0.79742,3.30729 -0.53438,2.85123 -2.51452,8.48307 -4.1056,11.677 -3.02524,6.07286 -6.88622,10.82874 -10.19329,12.5559 -1.24505,0.65023 -1.76091,0.76074 -3.57188,0.76511 -1.85234,0.004 -2.29182,-0.0919 -3.5193,-0.77193 -2.14226,-1.18678 -5.55266,-4.06289 -7.41307,-6.2517 -2.22021,-2.61212 -5.49424,-7.55139 -7.17696,-10.82731 -0.74843,-1.45703 -1.44982,-2.64915 -1.55866,-2.64915 -0.10883,0 -0.71691,0.52886 -1.35129,1.17525 -3.23412,3.29532 -7.70063,2.95245 -11.90007,-0.91351 -0.78867,-0.72604 -1.53536,-1.32007 -1.65932,-1.32007 -0.12396,0 -0.36412,0.32742 -0.53368,0.7276 -4.92178,11.61576 -10.2745,19.6102 -14.56597,21.75467 -1.83749,0.9182 -3.08494,0.99908 -4.42897,0.28714 z"
           style="fill:#b47b83;stroke-width:1" />
        <path
           inkscape:connector-curvature="0"
           id="path4775"
           d="m -190.53622,242.78246 c -0.65298,-0.28326 -1.69901,-1.20912 -3.97536,-3.51864 -5.3338,-5.41151 -9.97762,-12.98849 -13.11716,-21.40229 -1.57902,-4.23171 -2.99801,-9.17989 -3.35008,-11.68213 -0.15357,-1.09141 -0.40978,-2.25973 -0.56937,-2.59628 -0.40625,-0.85671 -0.41561,-11.4016 -0.0109,-12.24643 0.16742,-0.34948 0.49823,-1.57695 0.73513,-2.72772 0.51105,-2.48253 2.01134,-5.49041 3.18509,-6.38567 1.11589,-0.85113 2.95855,-1.64508 4.32528,-1.86363 0.6155,-0.0984 1.18302,-0.28237 1.26114,-0.40878 0.18577,-0.30057 2.2964,-0.29619 3.07493,0.006 0.33427,0.12991 1.52999,0.43761 2.65716,0.68376 2.44107,0.53309 5.93056,2.19358 8.66623,4.12384 4.24732,2.99688 9.49972,9.03283 13.20084,15.17012 0.9303,1.54266 1.80477,2.80483 1.94326,2.80483 0.13849,0 1.07661,-0.8832 2.08471,-1.96267 1.00811,-1.07947 2.39583,-2.29959 3.08383,-2.71138 1.11081,-0.66486 1.50276,-0.74877 3.49986,-0.74931 2.75141,-7.4e-4 4.16735,0.6027 6.33049,2.69786 0.79645,0.77142 1.57314,1.40031 1.72598,1.39752 0.15285,-0.003 0.71342,-0.74693 1.24572,-1.65365 2.832,-4.824 7.31384,-9.63033 11.59291,-12.43223 3.9524,-2.588 9.91908,-5.49143 13.10386,-6.37643 1.4552,-0.40439 3.01147,-0.84622 3.45836,-0.98185 1.02941,-0.31243 2.68316,-0.31935 2.8731,-0.012 0.0797,0.12903 0.57012,0.31435 1.08973,0.41183 1.34294,0.25193 2.90465,1.76548 3.51752,3.40904 0.28067,0.75268 0.71501,2.61866 0.96522,4.14663 0.2502,1.52797 0.58803,3.05812 0.75074,3.40034 0.39879,0.83876 0.4041,11.92373 0.006,12.77848 -0.15934,0.34222 -0.48254,2.05904 -0.71823,3.81517 -0.23569,1.75612 -0.64967,3.83971 -0.91995,4.6302 -0.27029,0.7905 -0.5734,2.06464 -0.67358,2.83144 -0.28495,2.18094 -2.4545,8.62192 -4.0113,11.9088 -2.9045,6.13231 -7.00085,11.28507 -10.22572,12.86285 -4.00639,1.96014 -7.22597,0.81131 -12.52712,-4.46999 -3.30107,-3.28872 -6.17682,-7.34325 -8.67007,-12.22397 -0.83264,-1.62996 -1.62386,-3.03153 -1.75828,-3.1146 -0.13441,-0.0831 -0.69806,0.33987 -1.25255,0.93986 -1.7267,1.86842 -3.07215,2.49246 -5.37378,2.49246 -2.50308,0 -4.21155,-0.77805 -6.68476,-3.04429 -0.95191,-0.87226 -1.83346,-1.58591 -1.959,-1.58591 -0.12554,0 -0.68631,1.10132 -1.24614,2.44739 -0.55983,1.34606 -1.90843,4.1738 -2.99688,6.28385 -3.49016,6.76594 -6.92599,11.45971 -9.80967,13.4012 -0.83211,0.56022 -1.57891,1.10698 -1.65957,1.215 -0.1987,0.26612 -2.4083,0.49036 -2.86777,0.29104 z"
           style="fill:#ffcc00;stroke-width:1" />
        <path
           inkscape:connector-curvature="0"
           id="path4771"
           d="m -190.57622,243.02383 c -0.25849,-0.0674 -0.40142,-0.23353 -0.31763,-0.36911 0.0838,-0.13558 -0.0489,-0.24651 -0.29491,-0.24651 -0.67573,0 -5.41582,-4.92431 -7.7188,-8.01879 -2.31388,-3.10911 -4.73819,-7.08583 -6.29819,-10.33125 -3.31559,-6.89777 -6.2986,-16.85802 -6.39565,-21.35507 -0.0209,-0.96757 -0.0678,-1.08881 -0.21869,-0.56511 -0.12261,0.4256 -0.2479,-0.38221 -0.34642,-2.23372 -0.18141,-3.40906 0.0564,-8.64377 0.34682,-7.63383 0.16494,0.57364 0.19541,0.52553 0.21829,-0.3446 0.0474,-1.8024 0.83929,-5.08051 1.65233,-6.83976 1.53646,-3.32461 4.00616,-4.77827 8.50849,-5.00808 2.92797,-0.14945 5.04561,0.25628 8.20734,1.57251 6.25131,2.60243 13.43705,9.70467 18.68395,18.46684 0.92899,1.55139 1.85228,2.82071 2.05173,2.82071 0.19946,0 0.55039,-0.27002 0.77983,-0.60006 1.05555,-1.51826 3.59528,-3.79384 4.94688,-4.43238 1.14393,-0.54043 1.84836,-0.68687 3.20028,-0.66528 2.25147,0.036 3.82083,0.77524 5.95354,2.80466 1.72505,1.6415 2.22146,1.85841 2.50105,1.0929 0.39921,-1.09301 3.29992,-5.19103 5.43427,-7.67734 3.5515,-4.13716 7.36907,-6.90183 13.98027,-10.12447 4.44069,-2.16462 7.34225,-3.08134 10.33252,-3.26441 3.95816,-0.24235 5.90813,0.94683 6.87627,4.19344 0.62904,2.10944 1.3165,6.02598 1.35277,7.70689 0.0208,0.96426 0.068,1.08702 0.21731,0.56513 0.29105,-1.01741 0.50641,5.02188 0.29481,8.26739 -0.10039,1.54014 -0.21865,2.44022 -0.26276,2.00018 -0.0442,-0.44003 -0.1799,0.16001 -0.30174,1.33346 -0.31998,3.08158 -1.05251,7.29965 -1.47629,8.50077 -0.20109,0.56994 -0.49045,1.81763 -0.64301,2.77265 -0.40907,2.56069 -2.73934,9.40512 -4.24286,12.46202 -5.07695,10.32228 -11.20678,15.0163 -16.41406,12.56934 -4.79107,-2.25135 -11.21802,-9.70835 -14.88361,-17.26896 -0.76147,-1.57061 -1.53225,-2.92125 -1.71283,-3.00141 -0.18058,-0.0801 -0.84065,0.4021 -1.4668,1.0717 -1.51885,1.62425 -3.35285,2.53655 -5.13132,2.55254 -2.50818,0.0225 -4.47517,-0.93379 -7.13244,-3.46767 -0.83845,-0.7995 -1.67852,-1.39338 -1.86683,-1.31971 -0.18832,0.0737 -0.567,0.77812 -0.84152,1.56547 -1.37127,3.93279 -5.81905,12.21202 -8.55044,15.91608 -1.75875,2.38505 -4.35775,4.89706 -5.67779,5.48774 -0.6194,0.27717 -1.07139,0.59258 -1.00442,0.70094 0.0669,0.10834 -0.25133,0.27161 -0.70733,0.36281 -0.87392,0.17478 -0.89164,0.17458 -1.63241,-0.0187 z m 3.21143,-4.61232 c 2.37496,-1.07793 5.52203,-5.05455 8.12859,-10.27122 2.62193,-5.24745 5.34704,-12.48572 5.21037,-13.83944 -0.0718,-0.71092 -0.24979,-0.84116 -1.94583,-1.42359 -1.02676,-0.3526 -3.71547,-1.11148 -5.9749,-1.6864 -2.25943,-0.57492 -4.1527,-1.08997 -4.20728,-1.14455 -0.19633,-0.19634 3.59238,-0.49894 7.49853,-0.59891 2.19097,-0.056 4.08561,-0.20396 4.21029,-0.32864 0.30049,-0.3005 -0.8895,-3.6021 -2.35887,-6.54464 -4.40723,-8.82583 -11.58959,-15.11759 -20.76076,-18.18645 -4.22794,-1.41476 -6.43099,-1.13068 -8.37158,1.07954 -1.71709,1.95566 -2.34797,4.23435 -2.60642,9.41425 -0.59605,11.94591 3.51019,24.93433 11.5447,36.51705 4.99729,7.2042 6.61582,8.3825 9.63316,7.013 z m 52.79763,-0.67553 c 2.97177,-0.88253 5.72374,-3.98948 8.49934,-9.59569 1.59423,-3.22006 3.19476,-7.54743 3.81476,-10.31398 0.32572,-1.45343 1.2207,-7.42929 1.67058,-11.15458 0.47341,-3.92012 0.45683,-15.80102 -0.0258,-18.49047 -0.63356,-3.53058 -1.9817,-4.81189 -5.07304,-4.82164 -3.30251,-0.0104 -9.63271,2.21288 -14.09465,4.95026 -2.95552,1.8132 -8.08188,6.87096 -10.24951,10.11237 -2.50866,3.75136 -3.93908,7.28156 -3.93698,9.71626 0.001,1.6816 0.1943,1.82269 2.02139,1.47899 2.2006,-0.41397 7.20999,-0.62379 8.61044,-0.36064 l 1.17159,0.22013 -2.56383,0.72061 c -3.29526,0.9262 -7.71086,2.75917 -8.57413,3.55922 -0.61892,0.57361 -0.6727,0.80729 -0.6727,2.9227 0,5.9355 4.00231,12.18814 11.88073,18.56076 2.39704,1.93888 4.1047,2.81559 5.60575,2.87797 0.3034,0.0126 1.16565,-0.15942 1.91608,-0.38227 z m -27.19468,-17.07716 c 3.00077,-1.25351 4.85127,-5.33664 4.892,-10.7943 0.0282,-3.77454 -0.71523,-6.00887 -2.61223,-7.8512 -1.19032,-1.15603 -3.31675,-1.85821 -4.8076,-1.58753 -4.05402,0.73605 -6.79421,4.84836 -6.78791,10.18694 0.006,4.69135 1.77356,8.21548 4.90435,9.77561 1.56901,0.78188 2.98003,0.86838 4.41139,0.27048 z m 36.79779,-41.11143 c 0.33174,-0.0638 0.81179,-0.0614 1.06677,0.005 0.25497,0.0667 -0.0164,0.11894 -0.60317,0.11597 -0.58671,-0.003 -0.79534,-0.0575 -0.4636,-0.12135 z"
           style="fill:#d4aa00;stroke-width:1" />
      </g>
    </g>
    <g
       aria-label="QUASAR"
       style="font-style:normal;font-variant:normal;font-weight:normal;font-stretch:normal;font-size:63.5px;line-height:1.25;font-family:'SF Electrotome Condensed';-inkscape-font-specification:'SF Electrotome Condensed, Normal';font-variant-ligatures:normal;font-variant-caps:normal;font-variant-numeric:normal;font-feature-settings:normal;text-align:start;letter-spacing:0px;word-spacing:0px;writing-mode:lr-tb;text-anchor:start;fill:#ffffff;fill-opacity:1;stroke:none;stroke-width:0.26458332"
       id="text4828">
      <path
         inkscape:connector-curvature="0"
         d="m 53.6159,24.695546 -5.768409,2.669597 -4.440647,-9.595256 -10.354998,4.792252 Q 31.78561,23.148148 30.33614,22.452345 28.914808,21.743519 28.17253,20.13962 L 13.952043,-10.587711 q -0.729256,-1.57576 -0.349719,-3.118021 0.407677,-1.555284 1.673913,-2.141293 l 16.123407,-7.461849 z M 41.18001,12.95819 27.845047,-15.855718 l -7.681833,3.555122 13.334963,28.813907 z"
         id="path4948" />
      <path
         inkscape:connector-curvature="0"
         d="M 73.010574,8.6707995 55.789053,13.03688 q -1.352476,0.342886 -2.619023,-0.615485 -1.266548,-0.95837 -1.70087,-2.6715057 l -9.356976,-36.9075533 6.131223,-1.554416 9.097906,35.8856828 8.205018,-2.0801744 -9.097906,-35.8856834 6.161277,-1.562036 z"
         id="path4950" />
      <path
         inkscape:connector-curvature="0"
         d="M 101.32843,6.7844869 86.370541,7.5172279 88.216997,2.1184159 93.171993,1.875686 87.050376,-21.696532 82.437513,7.7098947 75.686332,8.0406142 83.030034,-34.69288 89.781216,-35.0236 Z"
         id="path4952" />
      <path
         inkscape:connector-curvature="0"
         d="m 125.31275,6.0220406 q -0.25856,1.7483188 -1.45218,2.8255196 -1.16296,1.0817368 -2.51254,0.8821506 l -17.60588,-2.6036931 2.86138,-4.9365051 12.57563,1.8597808 1.93236,-13.066383 -11.31807,-1.6738024 q -1.34958,-0.199587 -2.18032,-1.576167 -0.79553,-1.402716 -0.54151,-3.120362 l 2.24534,-15.182769 q 0.25402,-1.717647 1.41697,-2.799384 1.19363,-1.077201 2.54321,-0.877614 l 17.60588,2.603693 -2.88752,4.901297 -12.54495,-1.855245 -1.9369,13.097055 11.31807,1.673803 q 1.34958,0.199586 2.14965,1.57163 0.83074,1.37658 0.57219,3.1248989 z"
         id="path4954" />
      <path
         inkscape:connector-curvature="0"
         d="m 151.25814,19.192394 -14.11015,-5.017889 3.76304,-4.2890657 4.67417,1.6622407 3.31498,-24.127466 -15.46231,25.434888 -6.36855,-2.264803 23.06191,-36.718248 6.36855,2.264803 z"
         id="path4956" />
      <path
         inkscape:connector-curvature="0"
         d="m 171.8125,31.434011 -5.45369,-3.264755 6.77721,-23.6961174 5.45368,3.2647551 6.80025,-11.3596243 -7.26271,-4.3476983 -19.03114,31.7909859 -5.45368,-3.264755 21.73849,-36.313553 15.27032,9.1413142 q 1.17054,0.700728 1.38482,2.2744817 0.24089,1.5896794 -0.65095,3.0794662 l -7.88319,13.1686509 q -0.89183,1.489787 -2.42269,2.054978 -1.48833,0.554513 -2.65888,-0.146215 l -1.35677,-0.812207 z"
         id="path4958" />
    </g>
  </g>
</svg>
